<svg xmlns="http://www.w3.org/2000/svg" width="900" height="520" viewBox="0 0 900 520" role="img" aria-label="Batch mode comparison — topology distribution">
<style>text{font-family:ui-sans-serif,system-ui,sans-serif;fill:#172033}.title{font-size:22px;font-weight:700}.subtitle{font-size:12px;fill:#475569}.axis{font-size:11px;font-weight:600}.tick{font-size:10px;fill:#475569}.note{font-size:10px;fill:#64748b}.legend-label{font-size:11px;font-weight:600}</style>
<rect width="100%" height="100%" fill="#ffffff"/>
<defs><linearGradient id="throughput-rainbow" x1="0" x2="1" y1="0" y2="0"><stop offset="0%" stop-color="#0000ff"/><stop offset="20%" stop-color="#00bfff"/><stop offset="40%" stop-color="#00ff00"/><stop offset="60%" stop-color="#ffff00"/><stop offset="80%" stop-color="#ff7f00"/><stop offset="100%" stop-color="#ff0000"/></linearGradient><pattern id="self-pair" width="8" height="8" patternUnits="userSpaceOnUse" patternTransform="rotate(45)"><rect width="8" height="8" fill="#dbe3ee"/><line x1="0" y1="0" x2="0" y2="8" stroke="#94a3b8" stroke-width="3"/></pattern></defs>
<text x="28" y="32" class="title">Batch mode comparison — topology distribution</text>
<text x="28" y="53" class="subtitle">Point: median across directed CPU pairs. Vertical whisker: min–max pair median. hard Linux logical-CPU pinning</text>
<line x1="90" y1="405" x2="855" y2="405" stroke="#334155"/><line x1="90" y1="95" x2="90" y2="405" stroke="#334155"/>
<line x1="90" y1="405.0" x2="855" y2="405.0" stroke="#e2e8f0"/><text x="81" y="409.0" text-anchor="end" class="tick">14</text>
<line x1="90" y1="327.5" x2="855" y2="327.5" stroke="#e2e8f0"/><text x="81" y="331.5" text-anchor="end" class="tick">109</text>
<line x1="90" y1="250.0" x2="855" y2="250.0" stroke="#e2e8f0"/><text x="81" y="254.0" text-anchor="end" class="tick">205</text>
<line x1="90" y1="172.5" x2="855" y2="172.5" stroke="#e2e8f0"/><text x="81" y="176.5" text-anchor="end" class="tick">301</text>
<line x1="90" y1="95.0" x2="855" y2="95.0" stroke="#e2e8f0"/><text x="81" y="99.0" text-anchor="end" class="tick">397</text>
<line x1="472.5" y1="405.0" x2="472.5" y2="95.0" stroke="#64748b" stroke-width="2"/><line x1="465.5" y1="405.0" x2="479.5" y2="405.0" stroke="#64748b"/><line x1="465.5" y1="95.0" x2="479.5" y2="95.0" stroke="#64748b"/><circle cx="472.5" cy="398.18937372176737" r="7" fill="rgb(0,21,255)" stroke="#172033"><title>scalar: pair median 22.067; range 13.644–397.047 M items/s</title></circle>
<text x="472.5" y="427" text-anchor="middle" class="tick">scalar</text>
<text x="90" y="77" class="axis">M items/s</text>
<text x="472.5" y="494" text-anchor="middle" class="axis">API mode / fixed batch width</text>
<text x="595" y="64" class="legend-label">Point color: pair median (M items/s)</text>
<rect x="595" y="72" width="250" height="16" rx="2" fill="url(#throughput-rainbow)" stroke="#475569"/>
<line x1="595" y1="88" x2="595" y2="93" stroke="#334155"/>
<text x="595" y="107" text-anchor="middle" class="tick">14</text>
<line x1="657.5" y1="88" x2="657.5" y2="93" stroke="#334155"/>
<text x="657.5" y="107" text-anchor="middle" class="tick">109</text>
<line x1="720.0" y1="88" x2="720.0" y2="93" stroke="#334155"/>
<text x="720.0" y="107" text-anchor="middle" class="tick">205</text>
<line x1="782.5" y1="88" x2="782.5" y2="93" stroke="#334155"/>
<text x="782.5" y="107" text-anchor="middle" class="tick">301</text>
<line x1="845" y1="88" x2="845" y2="93" stroke="#334155"/>
<text x="845" y="107" text-anchor="middle" class="tick">397</text>
<text x="595" y="123" class="note">Slowest = blue · fastest = red · linear scale for this view</text>
</svg>