<svg xmlns="http://www.w3.org/2000/svg" width="780" height="770" viewBox="0 0 780 770">
<style>text{font:12px sans-serif;fill:#172033}.small{font-size:10px}.title{font-size:20px;font-weight:bold}</style>
<rect width="100%" height="100%" fill="#f8fafc"/>
<text x="20" y="30" class="title">FastQueue topology matrix — Fixed batch 16</text>
<text x="20" y="52" class="small">Color: relative median throughput (M items/s). advisory macOS affinity; no hard logical-CPU pinning.</text>
<text x="20" y="75" class="small">Rows: producer logical CPU. Columns: consumer logical CPU. Diagonal intentionally blank.</text>
<text x="180.0" y="92" text-anchor="middle" class="small">0</text>
<text x="142" y="133.0" text-anchor="end" class="small">0</text>
<text x="240.0" y="92" text-anchor="middle" class="small">1</text>
<text x="142" y="193.0" text-anchor="end" class="small">1</text>
<text x="300.0" y="92" text-anchor="middle" class="small">2</text>
<text x="142" y="253.0" text-anchor="end" class="small">2</text>
<text x="360.0" y="92" text-anchor="middle" class="small">3</text>
<text x="142" y="313.0" text-anchor="end" class="small">3</text>
<text x="420.0" y="92" text-anchor="middle" class="small">4</text>
<text x="142" y="373.0" text-anchor="end" class="small">4</text>
<text x="480.0" y="92" text-anchor="middle" class="small">5</text>
<text x="142" y="433.0" text-anchor="end" class="small">5</text>
<text x="540.0" y="92" text-anchor="middle" class="small">6</text>
<text x="142" y="493.0" text-anchor="end" class="small">6</text>
<text x="600.0" y="92" text-anchor="middle" class="small">7</text>
<text x="142" y="553.0" text-anchor="end" class="small">7</text>
<text x="660.0" y="92" text-anchor="middle" class="small">8</text>
<text x="142" y="613.0" text-anchor="end" class="small">8</text>
<text x="720.0" y="92" text-anchor="middle" class="small">9</text>
<text x="142" y="673.0" text-anchor="end" class="small">9</text>
<rect x="150" y="100" width="59" height="59" fill="#cbd5e1"/>
<rect x="210" y="100" width="59" height="59" fill="rgb(155,126,68)"/>
<title>P0 → C1: 1269.65 M/s</title>
<rect x="270" y="100" width="59" height="59" fill="rgb(242,185,55)"/>
<title>P0 → C2: 1338.18 M/s</title>
<rect x="330" y="100" width="59" height="59" fill="rgb(103,90,77)"/>
<title>P0 → C3: 1228.09 M/s</title>
<rect x="390" y="100" width="59" height="59" fill="rgb(122,103,73)"/>
<title>P0 → C4: 1243.75 M/s</title>
<rect x="450" y="100" width="59" height="59" fill="rgb(88,80,79)"/>
<title>P0 → C5: 1216.78 M/s</title>
<rect x="510" y="100" width="59" height="59" fill="rgb(86,78,79)"/>
<title>P0 → C6: 1214.67 M/s</title>
<rect x="570" y="100" width="59" height="59" fill="rgb(138,114,71)"/>
<title>P0 → C7: 1256.49 M/s</title>
<rect x="630" y="100" width="59" height="59" fill="rgb(96,86,78)"/>
<title>P0 → C8: 1223.26 M/s</title>
<rect x="690" y="100" width="59" height="59" fill="rgb(100,88,77)"/>
<title>P0 → C9: 1226.00 M/s</title>
<rect x="150" y="160" width="59" height="59" fill="rgb(123,104,73)"/>
<title>P1 → C0: 1244.56 M/s</title>
<rect x="210" y="160" width="59" height="59" fill="#cbd5e1"/>
<rect x="270" y="160" width="59" height="59" fill="rgb(144,118,70)"/>
<title>P1 → C2: 1260.98 M/s</title>
<rect x="330" y="160" width="59" height="59" fill="rgb(100,88,77)"/>
<title>P1 → C3: 1226.24 M/s</title>
<rect x="390" y="160" width="59" height="59" fill="rgb(74,70,81)"/>
<title>P1 → C4: 1205.19 M/s</title>
<rect x="450" y="160" width="59" height="59" fill="rgb(92,82,78)"/>
<title>P1 → C5: 1219.38 M/s</title>
<rect x="510" y="160" width="59" height="59" fill="rgb(109,94,76)"/>
<title>P1 → C6: 1232.88 M/s</title>
<rect x="570" y="160" width="59" height="59" fill="rgb(72,69,82)"/>
<title>P1 → C7: 1203.68 M/s</title>
<rect x="630" y="160" width="59" height="59" fill="rgb(45,50,86)"/>
<title>P1 → C8: 1182.13 M/s</title>
<rect x="690" y="160" width="59" height="59" fill="rgb(117,99,74)"/>
<title>P1 → C9: 1239.18 M/s</title>
<rect x="150" y="220" width="59" height="59" fill="rgb(101,88,77)"/>
<title>P2 → C0: 1226.58 M/s</title>
<rect x="210" y="220" width="59" height="59" fill="rgb(102,89,77)"/>
<title>P2 → C1: 1227.54 M/s</title>
<rect x="270" y="220" width="59" height="59" fill="#cbd5e1"/>
<rect x="330" y="220" width="59" height="59" fill="rgb(215,166,59)"/>
<title>P2 → C3: 1317.02 M/s</title>
<rect x="390" y="220" width="59" height="59" fill="rgb(87,79,79)"/>
<title>P2 → C4: 1215.41 M/s</title>
<rect x="450" y="220" width="59" height="59" fill="rgb(90,81,79)"/>
<title>P2 → C5: 1218.23 M/s</title>
<rect x="510" y="220" width="59" height="59" fill="rgb(77,73,81)"/>
<title>P2 → C6: 1208.19 M/s</title>
<rect x="570" y="220" width="59" height="59" fill="rgb(209,162,60)"/>
<title>P2 → C7: 1312.12 M/s</title>
<rect x="630" y="220" width="59" height="59" fill="rgb(90,81,79)"/>
<title>P2 → C8: 1218.06 M/s</title>
<rect x="690" y="220" width="59" height="59" fill="rgb(97,86,77)"/>
<title>P2 → C9: 1223.81 M/s</title>
<rect x="150" y="280" width="59" height="59" fill="rgb(133,111,72)"/>
<title>P3 → C0: 1252.49 M/s</title>
<rect x="210" y="280" width="59" height="59" fill="rgb(103,90,77)"/>
<title>P3 → C1: 1228.53 M/s</title>
<rect x="270" y="280" width="59" height="59" fill="rgb(111,96,75)"/>
<title>P3 → C2: 1235.08 M/s</title>
<rect x="330" y="280" width="59" height="59" fill="#cbd5e1"/>
<rect x="390" y="280" width="59" height="59" fill="rgb(107,93,76)"/>
<title>P3 → C4: 1231.82 M/s</title>
<rect x="450" y="280" width="59" height="59" fill="rgb(126,106,73)"/>
<title>P3 → C5: 1246.50 M/s</title>
<rect x="510" y="280" width="59" height="59" fill="rgb(97,86,77)"/>
<title>P3 → C6: 1223.75 M/s</title>
<rect x="570" y="280" width="59" height="59" fill="rgb(104,91,76)"/>
<title>P3 → C7: 1229.49 M/s</title>
<rect x="630" y="280" width="59" height="59" fill="rgb(82,76,80)"/>
<title>P3 → C8: 1211.58 M/s</title>
<rect x="690" y="280" width="59" height="59" fill="rgb(97,86,77)"/>
<title>P3 → C9: 1223.89 M/s</title>
<rect x="150" y="340" width="59" height="59" fill="rgb(66,65,82)"/>
<title>P4 → C0: 1198.81 M/s</title>
<rect x="210" y="340" width="59" height="59" fill="rgb(101,88,77)"/>
<title>P4 → C1: 1226.53 M/s</title>
<rect x="270" y="340" width="59" height="59" fill="rgb(74,71,81)"/>
<title>P4 → C2: 1205.75 M/s</title>
<rect x="330" y="340" width="59" height="59" fill="rgb(24,36,89)"/>
<title>P4 → C3: 1166.00 M/s</title>
<rect x="390" y="340" width="59" height="59" fill="#cbd5e1"/>
<rect x="450" y="340" width="59" height="59" fill="rgb(90,81,79)"/>
<title>P4 → C5: 1218.00 M/s</title>
<rect x="510" y="340" width="59" height="59" fill="rgb(70,67,82)"/>
<title>P4 → C6: 1201.92 M/s</title>
<rect x="570" y="340" width="59" height="59" fill="rgb(79,74,80)"/>
<title>P4 → C7: 1209.49 M/s</title>
<rect x="630" y="340" width="59" height="59" fill="rgb(52,55,85)"/>
<title>P4 → C8: 1188.05 M/s</title>
<rect x="690" y="340" width="59" height="59" fill="rgb(107,93,76)"/>
<title>P4 → C9: 1231.74 M/s</title>
<rect x="150" y="400" width="59" height="59" fill="rgb(76,72,81)"/>
<title>P5 → C0: 1207.24 M/s</title>
<rect x="210" y="400" width="59" height="59" fill="rgb(144,118,70)"/>
<title>P5 → C1: 1260.80 M/s</title>
<rect x="270" y="400" width="59" height="59" fill="rgb(93,83,78)"/>
<title>P5 → C2: 1220.15 M/s</title>
<rect x="330" y="400" width="59" height="59" fill="rgb(109,94,76)"/>
<title>P5 → C3: 1233.14 M/s</title>
<rect x="390" y="400" width="59" height="59" fill="rgb(120,101,74)"/>
<title>P5 → C4: 1241.61 M/s</title>
<rect x="450" y="400" width="59" height="59" fill="#cbd5e1"/>
<rect x="510" y="400" width="59" height="59" fill="rgb(108,93,76)"/>
<title>P5 → C6: 1232.12 M/s</title>
<rect x="570" y="400" width="59" height="59" fill="rgb(84,77,80)"/>
<title>P5 → C7: 1213.13 M/s</title>
<rect x="630" y="400" width="59" height="59" fill="rgb(110,95,75)"/>
<title>P5 → C8: 1234.26 M/s</title>
<rect x="690" y="400" width="59" height="59" fill="rgb(121,102,74)"/>
<title>P5 → C9: 1242.89 M/s</title>
<rect x="150" y="460" width="59" height="59" fill="rgb(28,39,88)"/>
<title>P6 → C0: 1169.08 M/s</title>
<rect x="210" y="460" width="59" height="59" fill="rgb(81,75,80)"/>
<title>P6 → C1: 1211.10 M/s</title>
<rect x="270" y="460" width="59" height="59" fill="rgb(88,80,79)"/>
<title>P6 → C2: 1216.35 M/s</title>
<rect x="330" y="460" width="59" height="59" fill="rgb(91,82,78)"/>
<title>P6 → C3: 1218.89 M/s</title>
<rect x="390" y="460" width="59" height="59" fill="rgb(71,68,82)"/>
<title>P6 → C4: 1203.21 M/s</title>
<rect x="450" y="460" width="59" height="59" fill="rgb(77,73,81)"/>
<title>P6 → C5: 1208.16 M/s</title>
<rect x="510" y="460" width="59" height="59" fill="#cbd5e1"/>
<rect x="570" y="460" width="59" height="59" fill="rgb(82,75,80)"/>
<title>P6 → C7: 1211.49 M/s</title>
<rect x="630" y="460" width="59" height="59" fill="rgb(95,84,78)"/>
<title>P6 → C8: 1221.76 M/s</title>
<rect x="690" y="460" width="59" height="59" fill="rgb(107,93,76)"/>
<title>P6 → C9: 1231.71 M/s</title>
<rect x="150" y="520" width="59" height="59" fill="rgb(106,92,76)"/>
<title>P7 → C0: 1230.86 M/s</title>
<rect x="210" y="520" width="59" height="59" fill="rgb(100,88,77)"/>
<title>P7 → C1: 1226.15 M/s</title>
<rect x="270" y="520" width="59" height="59" fill="rgb(83,76,80)"/>
<title>P7 → C2: 1212.26 M/s</title>
<rect x="330" y="520" width="59" height="59" fill="rgb(128,107,73)"/>
<title>P7 → C3: 1247.88 M/s</title>
<rect x="390" y="520" width="59" height="59" fill="rgb(86,79,79)"/>
<title>P7 → C4: 1215.27 M/s</title>
<rect x="450" y="520" width="59" height="59" fill="rgb(66,65,82)"/>
<title>P7 → C5: 1199.12 M/s</title>
<rect x="510" y="520" width="59" height="59" fill="rgb(118,100,74)"/>
<title>P7 → C6: 1240.01 M/s</title>
<rect x="570" y="520" width="59" height="59" fill="#cbd5e1"/>
<rect x="630" y="520" width="59" height="59" fill="rgb(94,84,78)"/>
<title>P7 → C8: 1221.59 M/s</title>
<rect x="690" y="520" width="59" height="59" fill="rgb(104,91,76)"/>
<title>P7 → C9: 1228.99 M/s</title>
<rect x="150" y="580" width="59" height="59" fill="rgb(158,128,68)"/>
<title>P8 → C0: 1272.23 M/s</title>
<rect x="210" y="580" width="59" height="59" fill="rgb(83,77,80)"/>
<title>P8 → C1: 1212.74 M/s</title>
<rect x="270" y="580" width="59" height="59" fill="rgb(110,95,75)"/>
<title>P8 → C2: 1234.23 M/s</title>
<rect x="330" y="580" width="59" height="59" fill="rgb(205,160,60)"/>
<title>P8 → C3: 1309.57 M/s</title>
<rect x="390" y="580" width="59" height="59" fill="rgb(102,89,77)"/>
<title>P8 → C4: 1227.66 M/s</title>
<rect x="450" y="580" width="59" height="59" fill="rgb(96,85,78)"/>
<title>P8 → C5: 1223.03 M/s</title>
<rect x="510" y="580" width="59" height="59" fill="rgb(47,52,86)"/>
<title>P8 → C6: 1183.77 M/s</title>
<rect x="570" y="580" width="59" height="59" fill="rgb(101,89,77)"/>
<title>P8 → C7: 1226.82 M/s</title>
<rect x="630" y="580" width="59" height="59" fill="#cbd5e1"/>
<rect x="690" y="580" width="59" height="59" fill="rgb(93,83,78)"/>
<title>P8 → C9: 1220.21 M/s</title>
<rect x="150" y="640" width="59" height="59" fill="rgb(109,94,76)"/>
<title>P9 → C0: 1233.35 M/s</title>
<rect x="210" y="640" width="59" height="59" fill="rgb(112,96,75)"/>
<title>P9 → C1: 1235.43 M/s</title>
<rect x="270" y="640" width="59" height="59" fill="rgb(88,80,79)"/>
<title>P9 → C2: 1216.29 M/s</title>
<rect x="330" y="640" width="59" height="59" fill="rgb(230,176,56)"/>
<title>P9 → C3: 1328.82 M/s</title>
<rect x="390" y="640" width="59" height="59" fill="rgb(22,35,90)"/>
<title>P9 → C4: 1163.89 M/s</title>
<rect x="450" y="640" width="59" height="59" fill="rgb(88,80,79)"/>
<title>P9 → C5: 1216.80 M/s</title>
<rect x="510" y="640" width="59" height="59" fill="rgb(27,38,89)"/>
<title>P9 → C6: 1168.08 M/s</title>
<rect x="570" y="640" width="59" height="59" fill="rgb(142,117,70)"/>
<title>P9 → C7: 1259.33 M/s</title>
<rect x="630" y="640" width="59" height="59" fill="rgb(89,80,79)"/>
<title>P9 → C8: 1217.32 M/s</title>
<rect x="690" y="640" width="59" height="59" fill="#cbd5e1"/>
<text x="150" y="730" class="small">min 1163.9 M/s</text>
<text x="750" y="730" text-anchor="end" class="small">max 1338.2 M/s</text>
</svg>