<svg xmlns="http://www.w3.org/2000/svg" width="313" height="390" viewBox="0 0 313 390" role="img" aria-label="Fixed batch width 16 — directed CPU-pair throughput">
<style>text{font-family:ui-sans-serif,system-ui,sans-serif;fill:#172033}.title{font-size:22px;font-weight:700}.subtitle{font-size:12px;fill:#475569}.axis{font-size:11px;font-weight:600}.tick{font-size:10px;fill:#475569}.note{font-size:10px;fill:#64748b}.legend-label{font-size:11px;font-weight:600}</style>
<rect width="100%" height="100%" fill="#ffffff"/>
<defs><linearGradient id="throughput-rainbow" x1="0" x2="1" y1="0" y2="0"><stop offset="0%" stop-color="#0000ff"/><stop offset="20%" stop-color="#00bfff"/><stop offset="40%" stop-color="#00ff00"/><stop offset="60%" stop-color="#ffff00"/><stop offset="80%" stop-color="#ff7f00"/><stop offset="100%" stop-color="#ff0000"/></linearGradient><pattern id="self-pair" width="8" height="8" patternUnits="userSpaceOnUse" patternTransform="rotate(45)"><rect width="8" height="8" fill="#dbe3ee"/><line x1="0" y1="0" x2="0" y2="8" stroke="#94a3b8" stroke-width="3"/></pattern></defs>
<text x="28" y="32" class="title">Fixed batch width 16 — directed CPU-pair throughput</text>
<text x="28" y="53" class="subtitle">Rows: producer CPU · columns: consumer CPU · each cell: median M items/s. advisory macOS affinity; no hard logical-CPU pinning.</text>
<text x="185.0" y="70" text-anchor="middle" class="axis">Consumer logical CPU →</text>
<text x="22" y="192.0" transform="rotate(-90 22 192.0)" text-anchor="middle" class="axis">Producer logical CPU →</text>
<text x="113.0" y="104" text-anchor="middle" class="tick">0</text>
<text x="98" y="123.0" text-anchor="end" class="tick">0</text>
<text x="129.0" y="104" text-anchor="middle" class="tick">1</text>
<text x="98" y="139.0" text-anchor="end" class="tick">1</text>
<text x="145.0" y="104" text-anchor="middle" class="tick">2</text>
<text x="98" y="155.0" text-anchor="end" class="tick">2</text>
<text x="161.0" y="104" text-anchor="middle" class="tick">3</text>
<text x="98" y="171.0" text-anchor="end" class="tick">3</text>
<text x="177.0" y="104" text-anchor="middle" class="tick">4</text>
<text x="98" y="187.0" text-anchor="end" class="tick">4</text>
<text x="193.0" y="104" text-anchor="middle" class="tick">5</text>
<text x="98" y="203.0" text-anchor="end" class="tick">5</text>
<text x="209.0" y="104" text-anchor="middle" class="tick">6</text>
<text x="98" y="219.0" text-anchor="end" class="tick">6</text>
<text x="225.0" y="104" text-anchor="middle" class="tick">7</text>
<text x="98" y="235.0" text-anchor="end" class="tick">7</text>
<text x="241.0" y="104" text-anchor="middle" class="tick">8</text>
<text x="98" y="251.0" text-anchor="end" class="tick">8</text>
<text x="257.0" y="104" text-anchor="middle" class="tick">9</text>
<text x="98" y="267.0" text-anchor="end" class="tick">9</text>
<rect x="105" y="112" width="16.1" height="16.1" fill="url(#self-pair)"><title>CPU 0 → itself: excluded by benchmark design</title></rect>
<rect x="121" y="112" width="16.1" height="16.1" fill="rgb(255,251,0)"><title>Producer CPU 0 → consumer CPU 1: median 1269.650 M items/s</title></rect>
<rect x="137" y="112" width="16.1" height="16.1" fill="rgb(255,0,0)"><title>Producer CPU 0 → consumer CPU 2: median 1338.180 M items/s</title></rect>
<rect x="153" y="112" width="16.1" height="16.1" fill="rgb(0,245,40)"><title>Producer CPU 0 → consumer CPU 3: median 1228.090 M items/s</title></rect>
<rect x="169" y="112" width="16.1" height="16.1" fill="rgb(74,255,0)"><title>Producer CPU 0 → consumer CPU 4: median 1243.750 M items/s</title></rect>
<rect x="185" y="112" width="16.1" height="16.1" fill="rgb(0,224,123)"><title>Producer CPU 0 → consumer CPU 5: median 1216.780 M items/s</title></rect>
<rect x="201" y="112" width="16.1" height="16.1" fill="rgb(0,220,139)"><title>Producer CPU 0 → consumer CPU 6: median 1214.670 M items/s</title></rect>
<rect x="217" y="112" width="16.1" height="16.1" fill="rgb(167,255,0)"><title>Producer CPU 0 → consumer CPU 7: median 1256.490 M items/s</title></rect>
<rect x="233" y="112" width="16.1" height="16.1" fill="rgb(0,236,76)"><title>Producer CPU 0 → consumer CPU 8: median 1223.260 M items/s</title></rect>
<rect x="249" y="112" width="16.1" height="16.1" fill="rgb(0,241,56)"><title>Producer CPU 0 → consumer CPU 9: median 1226.000 M items/s</title></rect>
<rect x="105" y="128" width="16.1" height="16.1" fill="rgb(80,255,0)"><title>Producer CPU 1 → consumer CPU 0: median 1244.560 M items/s</title></rect>
<rect x="121" y="128" width="16.1" height="16.1" fill="url(#self-pair)"><title>CPU 1 → itself: excluded by benchmark design</title></rect>
<rect x="137" y="128" width="16.1" height="16.1" fill="rgb(200,255,0)"><title>Producer CPU 1 → consumer CPU 2: median 1260.980 M items/s</title></rect>
<rect x="153" y="128" width="16.1" height="16.1" fill="rgb(0,241,54)"><title>Producer CPU 1 → consumer CPU 3: median 1226.240 M items/s</title></rect>
<rect x="169" y="128" width="16.1" height="16.1" fill="rgb(0,203,208)"><title>Producer CPU 1 → consumer CPU 4: median 1205.190 M items/s</title></rect>
<rect x="185" y="128" width="16.1" height="16.1" fill="rgb(0,229,104)"><title>Producer CPU 1 → consumer CPU 5: median 1219.380 M items/s</title></rect>
<rect x="201" y="128" width="16.1" height="16.1" fill="rgb(0,254,5)"><title>Producer CPU 1 → consumer CPU 6: median 1232.880 M items/s</title></rect>
<rect x="217" y="128" width="16.1" height="16.1" fill="rgb(0,200,219)"><title>Producer CPU 1 → consumer CPU 7: median 1203.680 M items/s</title></rect>
<rect x="233" y="128" width="16.1" height="16.1" fill="rgb(0,100,255)"><title>Producer CPU 1 → consumer CPU 8: median 1182.130 M items/s</title></rect>
<rect x="249" y="128" width="16.1" height="16.1" fill="rgb(41,255,0)"><title>Producer CPU 1 → consumer CPU 9: median 1239.180 M items/s</title></rect>
<rect x="105" y="144" width="16.1" height="16.1" fill="rgb(0,242,51)"><title>Producer CPU 2 → consumer CPU 0: median 1226.580 M items/s</title></rect>
<rect x="121" y="144" width="16.1" height="16.1" fill="rgb(0,244,44)"><title>Producer CPU 2 → consumer CPU 1: median 1227.540 M items/s</title></rect>
<rect x="137" y="144" width="16.1" height="16.1" fill="url(#self-pair)"><title>CPU 2 → itself: excluded by benchmark design</title></rect>
<rect x="153" y="144" width="16.1" height="16.1" fill="rgb(255,77,0)"><title>Producer CPU 2 → consumer CPU 3: median 1317.020 M items/s</title></rect>
<rect x="169" y="144" width="16.1" height="16.1" fill="rgb(0,222,133)"><title>Producer CPU 2 → consumer CPU 4: median 1215.410 M items/s</title></rect>
<rect x="185" y="144" width="16.1" height="16.1" fill="rgb(0,227,112)"><title>Producer CPU 2 → consumer CPU 5: median 1218.230 M items/s</title></rect>
<rect x="201" y="144" width="16.1" height="16.1" fill="rgb(0,208,186)"><title>Producer CPU 2 → consumer CPU 6: median 1208.190 M items/s</title></rect>
<rect x="217" y="144" width="16.1" height="16.1" fill="rgb(255,95,0)"><title>Producer CPU 2 → consumer CPU 7: median 1312.120 M items/s</title></rect>
<rect x="233" y="144" width="16.1" height="16.1" fill="rgb(0,226,114)"><title>Producer CPU 2 → consumer CPU 8: median 1218.060 M items/s</title></rect>
<rect x="249" y="144" width="16.1" height="16.1" fill="rgb(0,237,72)"><title>Producer CPU 2 → consumer CPU 9: median 1223.810 M items/s</title></rect>
<rect x="105" y="160" width="16.1" height="16.1" fill="rgb(138,255,0)"><title>Producer CPU 3 → consumer CPU 0: median 1252.490 M items/s</title></rect>
<rect x="121" y="160" width="16.1" height="16.1" fill="rgb(0,246,37)"><title>Producer CPU 3 → consumer CPU 1: median 1228.530 M items/s</title></rect>
<rect x="137" y="160" width="16.1" height="16.1" fill="rgb(11,255,0)"><title>Producer CPU 3 → consumer CPU 2: median 1235.080 M items/s</title></rect>
<rect x="153" y="160" width="16.1" height="16.1" fill="url(#self-pair)"><title>CPU 3 → itself: excluded by benchmark design</title></rect>
<rect x="169" y="160" width="16.1" height="16.1" fill="rgb(0,252,13)"><title>Producer CPU 3 → consumer CPU 4: median 1231.820 M items/s</title></rect>
<rect x="185" y="160" width="16.1" height="16.1" fill="rgb(94,255,0)"><title>Producer CPU 3 → consumer CPU 5: median 1246.500 M items/s</title></rect>
<rect x="201" y="160" width="16.1" height="16.1" fill="rgb(0,237,72)"><title>Producer CPU 3 → consumer CPU 6: median 1223.750 M items/s</title></rect>
<rect x="217" y="160" width="16.1" height="16.1" fill="rgb(0,247,30)"><title>Producer CPU 3 → consumer CPU 7: median 1229.490 M items/s</title></rect>
<rect x="233" y="160" width="16.1" height="16.1" fill="rgb(0,215,161)"><title>Producer CPU 3 → consumer CPU 8: median 1211.580 M items/s</title></rect>
<rect x="249" y="160" width="16.1" height="16.1" fill="rgb(0,237,71)"><title>Producer CPU 3 → consumer CPU 9: median 1223.890 M items/s</title></rect>
<rect x="105" y="176" width="16.1" height="16.1" fill="rgb(0,191,255)"><title>Producer CPU 4 → consumer CPU 0: median 1198.810 M items/s</title></rect>
<rect x="121" y="176" width="16.1" height="16.1" fill="rgb(0,242,52)"><title>Producer CPU 4 → consumer CPU 1: median 1226.530 M items/s</title></rect>
<rect x="137" y="176" width="16.1" height="16.1" fill="rgb(0,204,204)"><title>Producer CPU 4 → consumer CPU 2: median 1205.750 M items/s</title></rect>
<rect x="153" y="176" width="16.1" height="16.1" fill="rgb(0,12,255)"><title>Producer CPU 4 → consumer CPU 3: median 1166.000 M items/s</title></rect>
<rect x="169" y="176" width="16.1" height="16.1" fill="url(#self-pair)"><title>CPU 4 → itself: excluded by benchmark design</title></rect>
<rect x="185" y="176" width="16.1" height="16.1" fill="rgb(0,226,114)"><title>Producer CPU 4 → consumer CPU 5: median 1218.000 M items/s</title></rect>
<rect x="201" y="176" width="16.1" height="16.1" fill="rgb(0,197,232)"><title>Producer CPU 4 → consumer CPU 6: median 1201.920 M items/s</title></rect>
<rect x="217" y="176" width="16.1" height="16.1" fill="rgb(0,211,176)"><title>Producer CPU 4 → consumer CPU 7: median 1209.490 M items/s</title></rect>
<rect x="233" y="176" width="16.1" height="16.1" fill="rgb(0,132,255)"><title>Producer CPU 4 → consumer CPU 8: median 1188.050 M items/s</title></rect>
<rect x="249" y="176" width="16.1" height="16.1" fill="rgb(0,252,14)"><title>Producer CPU 4 → consumer CPU 9: median 1231.740 M items/s</title></rect>
<rect x="105" y="192" width="16.1" height="16.1" fill="rgb(0,207,193)"><title>Producer CPU 5 → consumer CPU 0: median 1207.240 M items/s</title></rect>
<rect x="121" y="192" width="16.1" height="16.1" fill="rgb(199,255,0)"><title>Producer CPU 5 → consumer CPU 1: median 1260.800 M items/s</title></rect>
<rect x="137" y="192" width="16.1" height="16.1" fill="rgb(0,230,98)"><title>Producer CPU 5 → consumer CPU 2: median 1220.150 M items/s</title></rect>
<rect x="153" y="192" width="16.1" height="16.1" fill="rgb(0,254,3)"><title>Producer CPU 5 → consumer CPU 3: median 1233.140 M items/s</title></rect>
<rect x="169" y="192" width="16.1" height="16.1" fill="rgb(59,255,0)"><title>Producer CPU 5 → consumer CPU 4: median 1241.610 M items/s</title></rect>
<rect x="185" y="192" width="16.1" height="16.1" fill="url(#self-pair)"><title>CPU 5 → itself: excluded by benchmark design</title></rect>
<rect x="201" y="192" width="16.1" height="16.1" fill="rgb(0,252,11)"><title>Producer CPU 5 → consumer CPU 6: median 1232.120 M items/s</title></rect>
<rect x="217" y="192" width="16.1" height="16.1" fill="rgb(0,217,150)"><title>Producer CPU 5 → consumer CPU 7: median 1213.130 M items/s</title></rect>
<rect x="233" y="192" width="16.1" height="16.1" fill="rgb(5,255,0)"><title>Producer CPU 5 → consumer CPU 8: median 1234.260 M items/s</title></rect>
<rect x="249" y="192" width="16.1" height="16.1" fill="rgb(68,255,0)"><title>Producer CPU 5 → consumer CPU 9: median 1242.890 M items/s</title></rect>
<rect x="105" y="208" width="16.1" height="16.1" fill="rgb(0,28,255)"><title>Producer CPU 6 → consumer CPU 0: median 1169.080 M items/s</title></rect>
<rect x="121" y="208" width="16.1" height="16.1" fill="rgb(0,214,165)"><title>Producer CPU 6 → consumer CPU 1: median 1211.100 M items/s</title></rect>
<rect x="137" y="208" width="16.1" height="16.1" fill="rgb(0,223,126)"><title>Producer CPU 6 → consumer CPU 2: median 1216.350 M items/s</title></rect>
<rect x="153" y="208" width="16.1" height="16.1" fill="rgb(0,228,108)"><title>Producer CPU 6 → consumer CPU 3: median 1218.890 M items/s</title></rect>
<rect x="169" y="208" width="16.1" height="16.1" fill="rgb(0,199,222)"><title>Producer CPU 6 → consumer CPU 4: median 1203.210 M items/s</title></rect>
<rect x="185" y="208" width="16.1" height="16.1" fill="rgb(0,208,186)"><title>Producer CPU 6 → consumer CPU 5: median 1208.160 M items/s</title></rect>
<rect x="201" y="208" width="16.1" height="16.1" fill="url(#self-pair)"><title>CPU 6 → itself: excluded by benchmark design</title></rect>
<rect x="217" y="208" width="16.1" height="16.1" fill="rgb(0,214,162)"><title>Producer CPU 6 → consumer CPU 7: median 1211.490 M items/s</title></rect>
<rect x="233" y="208" width="16.1" height="16.1" fill="rgb(0,233,87)"><title>Producer CPU 6 → consumer CPU 8: median 1221.760 M items/s</title></rect>
<rect x="249" y="208" width="16.1" height="16.1" fill="rgb(0,252,14)"><title>Producer CPU 6 → consumer CPU 9: median 1231.710 M items/s</title></rect>
<rect x="105" y="224" width="16.1" height="16.1" fill="rgb(0,250,20)"><title>Producer CPU 7 → consumer CPU 0: median 1230.860 M items/s</title></rect>
<rect x="121" y="224" width="16.1" height="16.1" fill="rgb(0,241,55)"><title>Producer CPU 7 → consumer CPU 1: median 1226.150 M items/s</title></rect>
<rect x="137" y="224" width="16.1" height="16.1" fill="rgb(0,216,156)"><title>Producer CPU 7 → consumer CPU 2: median 1212.260 M items/s</title></rect>
<rect x="153" y="224" width="16.1" height="16.1" fill="rgb(104,255,0)"><title>Producer CPU 7 → consumer CPU 3: median 1247.880 M items/s</title></rect>
<rect x="169" y="224" width="16.1" height="16.1" fill="rgb(0,221,134)"><title>Producer CPU 7 → consumer CPU 4: median 1215.270 M items/s</title></rect>
<rect x="185" y="224" width="16.1" height="16.1" fill="rgb(0,192,252)"><title>Producer CPU 7 → consumer CPU 5: median 1199.120 M items/s</title></rect>
<rect x="201" y="224" width="16.1" height="16.1" fill="rgb(47,255,0)"><title>Producer CPU 7 → consumer CPU 6: median 1240.010 M items/s</title></rect>
<rect x="217" y="224" width="16.1" height="16.1" fill="url(#self-pair)"><title>CPU 7 → itself: excluded by benchmark design</title></rect>
<rect x="233" y="224" width="16.1" height="16.1" fill="rgb(0,233,88)"><title>Producer CPU 7 → consumer CPU 8: median 1221.590 M items/s</title></rect>
<rect x="249" y="224" width="16.1" height="16.1" fill="rgb(0,247,34)"><title>Producer CPU 7 → consumer CPU 9: median 1228.990 M items/s</title></rect>
<rect x="105" y="240" width="16.1" height="16.1" fill="rgb(255,241,0)"><title>Producer CPU 8 → consumer CPU 0: median 1272.230 M items/s</title></rect>
<rect x="121" y="240" width="16.1" height="16.1" fill="rgb(0,217,153)"><title>Producer CPU 8 → consumer CPU 1: median 1212.740 M items/s</title></rect>
<rect x="137" y="240" width="16.1" height="16.1" fill="rgb(5,255,0)"><title>Producer CPU 8 → consumer CPU 2: median 1234.230 M items/s</title></rect>
<rect x="153" y="240" width="16.1" height="16.1" fill="rgb(255,104,0)"><title>Producer CPU 8 → consumer CPU 3: median 1309.570 M items/s</title></rect>
<rect x="169" y="240" width="16.1" height="16.1" fill="rgb(0,244,43)"><title>Producer CPU 8 → consumer CPU 4: median 1227.660 M items/s</title></rect>
<rect x="185" y="240" width="16.1" height="16.1" fill="rgb(0,236,77)"><title>Producer CPU 8 → consumer CPU 5: median 1223.030 M items/s</title></rect>
<rect x="201" y="240" width="16.1" height="16.1" fill="rgb(0,109,255)"><title>Producer CPU 8 → consumer CPU 6: median 1183.770 M items/s</title></rect>
<rect x="217" y="240" width="16.1" height="16.1" fill="rgb(0,243,50)"><title>Producer CPU 8 → consumer CPU 7: median 1226.820 M items/s</title></rect>
<rect x="233" y="240" width="16.1" height="16.1" fill="url(#self-pair)"><title>CPU 8 → itself: excluded by benchmark design</title></rect>
<rect x="249" y="240" width="16.1" height="16.1" fill="rgb(0,230,98)"><title>Producer CPU 8 → consumer CPU 9: median 1220.210 M items/s</title></rect>
<rect x="105" y="256" width="16.1" height="16.1" fill="rgb(0,255,2)"><title>Producer CPU 9 → consumer CPU 0: median 1233.350 M items/s</title></rect>
<rect x="121" y="256" width="16.1" height="16.1" fill="rgb(13,255,0)"><title>Producer CPU 9 → consumer CPU 1: median 1235.430 M items/s</title></rect>
<rect x="137" y="256" width="16.1" height="16.1" fill="rgb(0,223,127)"><title>Producer CPU 9 → consumer CPU 2: median 1216.290 M items/s</title></rect>
<rect x="153" y="256" width="16.1" height="16.1" fill="rgb(255,34,0)"><title>Producer CPU 9 → consumer CPU 3: median 1328.820 M items/s</title></rect>
<rect x="169" y="256" width="16.1" height="16.1" fill="rgb(0,0,255)"><title>Producer CPU 9 → consumer CPU 4: median 1163.890 M items/s</title></rect>
<rect x="185" y="256" width="16.1" height="16.1" fill="rgb(0,224,123)"><title>Producer CPU 9 → consumer CPU 5: median 1216.800 M items/s</title></rect>
<rect x="201" y="256" width="16.1" height="16.1" fill="rgb(0,23,255)"><title>Producer CPU 9 → consumer CPU 6: median 1168.080 M items/s</title></rect>
<rect x="217" y="256" width="16.1" height="16.1" fill="rgb(188,255,0)"><title>Producer CPU 9 → consumer CPU 7: median 1259.330 M items/s</title></rect>
<rect x="233" y="256" width="16.1" height="16.1" fill="rgb(0,225,119)"><title>Producer CPU 9 → consumer CPU 8: median 1217.320 M items/s</title></rect>
<rect x="249" y="256" width="16.1" height="16.1" fill="url(#self-pair)"><title>CPU 9 → itself: excluded by benchmark design</title></rect>
<text x="105" y="308" class="legend-label">Median throughput (M items/s)</text>
<rect x="105" y="316" width="160" height="16" rx="2" fill="url(#throughput-rainbow)" stroke="#475569"/>
<line x1="105" y1="332" x2="105" y2="337" stroke="#334155"/>
<text x="105" y="351" text-anchor="middle" class="tick">1164</text>
<line x1="145.0" y1="332" x2="145.0" y2="337" stroke="#334155"/>
<text x="145.0" y="351" text-anchor="middle" class="tick">1207</text>
<line x1="185.0" y1="332" x2="185.0" y2="337" stroke="#334155"/>
<text x="185.0" y="351" text-anchor="middle" class="tick">1251</text>
<line x1="225.0" y1="332" x2="225.0" y2="337" stroke="#334155"/>
<text x="225.0" y="351" text-anchor="middle" class="tick">1295</text>
<line x1="265" y1="332" x2="265" y2="337" stroke="#334155"/>
<text x="265" y="351" text-anchor="middle" class="tick">1338</text>
<text x="105" y="367" class="note">Slowest = blue · fastest = red · linear scale for this view</text>
<rect x="293" y="318" width="14" height="14" fill="url(#self-pair)"/><text x="313" y="330" class="note">self pair excluded</text>
</svg>