<svg xmlns="http://www.w3.org/2000/svg" width="780" height="770" viewBox="0 0 780 770">
<style>text{font:12px sans-serif;fill:#172033}.small{font-size:10px}.title{font-size:20px;font-weight:bold}</style>
<rect width="100%" height="100%" fill="#f8fafc"/>
<text x="20" y="30" class="title">FastQueue topology matrix — Scalar API</text>
<text x="20" y="52" class="small">Color: relative median throughput (M items/s). advisory macOS affinity; no hard logical-CPU pinning.</text>
<text x="20" y="75" class="small">Rows: producer logical CPU. Columns: consumer logical CPU. Diagonal intentionally blank.</text>
<text x="180.0" y="92" text-anchor="middle" class="small">0</text>
<text x="142" y="133.0" text-anchor="end" class="small">0</text>
<text x="240.0" y="92" text-anchor="middle" class="small">1</text>
<text x="142" y="193.0" text-anchor="end" class="small">1</text>
<text x="300.0" y="92" text-anchor="middle" class="small">2</text>
<text x="142" y="253.0" text-anchor="end" class="small">2</text>
<text x="360.0" y="92" text-anchor="middle" class="small">3</text>
<text x="142" y="313.0" text-anchor="end" class="small">3</text>
<text x="420.0" y="92" text-anchor="middle" class="small">4</text>
<text x="142" y="373.0" text-anchor="end" class="small">4</text>
<text x="480.0" y="92" text-anchor="middle" class="small">5</text>
<text x="142" y="433.0" text-anchor="end" class="small">5</text>
<text x="540.0" y="92" text-anchor="middle" class="small">6</text>
<text x="142" y="493.0" text-anchor="end" class="small">6</text>
<text x="600.0" y="92" text-anchor="middle" class="small">7</text>
<text x="142" y="553.0" text-anchor="end" class="small">7</text>
<text x="660.0" y="92" text-anchor="middle" class="small">8</text>
<text x="142" y="613.0" text-anchor="end" class="small">8</text>
<text x="720.0" y="92" text-anchor="middle" class="small">9</text>
<text x="142" y="673.0" text-anchor="end" class="small">9</text>
<rect x="150" y="100" width="59" height="59" fill="#cbd5e1"/>
<rect x="210" y="100" width="59" height="59" fill="rgb(116,99,74)"/>
<title>P0 → C1: 251.81 M/s</title>
<rect x="270" y="100" width="59" height="59" fill="rgb(119,101,74)"/>
<title>P0 → C2: 254.80 M/s</title>
<rect x="330" y="100" width="59" height="59" fill="rgb(89,81,79)"/>
<title>P0 → C3: 222.03 M/s</title>
<rect x="390" y="100" width="59" height="59" fill="rgb(53,56,84)"/>
<title>P0 → C4: 181.90 M/s</title>
<rect x="450" y="100" width="59" height="59" fill="rgb(192,151,62)"/>
<title>P0 → C5: 335.71 M/s</title>
<rect x="510" y="100" width="59" height="59" fill="rgb(116,99,75)"/>
<title>P0 → C6: 251.14 M/s</title>
<rect x="570" y="100" width="59" height="59" fill="rgb(101,89,77)"/>
<title>P0 → C7: 235.31 M/s</title>
<rect x="630" y="100" width="59" height="59" fill="rgb(165,132,67)"/>
<title>P0 → C8: 306.06 M/s</title>
<rect x="690" y="100" width="59" height="59" fill="rgb(190,149,63)"/>
<title>P0 → C9: 333.33 M/s</title>
<rect x="150" y="160" width="59" height="59" fill="rgb(137,113,71)"/>
<title>P1 → C0: 274.47 M/s</title>
<rect x="210" y="160" width="59" height="59" fill="#cbd5e1"/>
<rect x="270" y="160" width="59" height="59" fill="rgb(123,104,73)"/>
<title>P1 → C2: 259.54 M/s</title>
<rect x="330" y="160" width="59" height="59" fill="rgb(232,178,56)"/>
<title>P1 → C3: 380.59 M/s</title>
<rect x="390" y="160" width="59" height="59" fill="rgb(164,132,67)"/>
<title>P1 → C4: 305.37 M/s</title>
<rect x="450" y="160" width="59" height="59" fill="rgb(110,95,75)"/>
<title>P1 → C5: 245.12 M/s</title>
<rect x="510" y="160" width="59" height="59" fill="rgb(113,97,75)"/>
<title>P1 → C6: 248.35 M/s</title>
<rect x="570" y="160" width="59" height="59" fill="rgb(183,144,64)"/>
<title>P1 → C7: 325.74 M/s</title>
<rect x="630" y="160" width="59" height="59" fill="rgb(93,83,78)"/>
<title>P1 → C8: 225.62 M/s</title>
<rect x="690" y="160" width="59" height="59" fill="rgb(22,35,90)"/>
<title>P1 → C9: 146.78 M/s</title>
<rect x="150" y="220" width="59" height="59" fill="rgb(242,185,55)"/>
<title>P2 → C0: 390.98 M/s</title>
<rect x="210" y="220" width="59" height="59" fill="rgb(152,123,69)"/>
<title>P2 → C1: 291.25 M/s</title>
<rect x="270" y="220" width="59" height="59" fill="#cbd5e1"/>
<rect x="330" y="220" width="59" height="59" fill="rgb(110,95,75)"/>
<title>P2 → C3: 245.33 M/s</title>
<rect x="390" y="220" width="59" height="59" fill="rgb(151,123,69)"/>
<title>P2 → C4: 290.32 M/s</title>
<rect x="450" y="220" width="59" height="59" fill="rgb(142,117,70)"/>
<title>P2 → C5: 280.30 M/s</title>
<rect x="510" y="220" width="59" height="59" fill="rgb(154,125,68)"/>
<title>P2 → C6: 294.00 M/s</title>
<rect x="570" y="220" width="59" height="59" fill="rgb(165,132,67)"/>
<title>P2 → C7: 306.14 M/s</title>
<rect x="630" y="220" width="59" height="59" fill="rgb(213,165,59)"/>
<title>P2 → C8: 359.15 M/s</title>
<rect x="690" y="220" width="59" height="59" fill="rgb(186,146,63)"/>
<title>P2 → C9: 329.12 M/s</title>
<rect x="150" y="280" width="59" height="59" fill="rgb(87,79,79)"/>
<title>P3 → C0: 220.04 M/s</title>
<rect x="210" y="280" width="59" height="59" fill="rgb(124,104,73)"/>
<title>P3 → C1: 260.22 M/s</title>
<rect x="270" y="280" width="59" height="59" fill="rgb(100,88,77)"/>
<title>P3 → C2: 234.00 M/s</title>
<rect x="330" y="280" width="59" height="59" fill="#cbd5e1"/>
<rect x="390" y="280" width="59" height="59" fill="rgb(133,111,72)"/>
<title>P3 → C4: 270.66 M/s</title>
<rect x="450" y="280" width="59" height="59" fill="rgb(186,146,63)"/>
<title>P3 → C5: 329.09 M/s</title>
<rect x="510" y="280" width="59" height="59" fill="rgb(137,113,71)"/>
<title>P3 → C6: 275.03 M/s</title>
<rect x="570" y="280" width="59" height="59" fill="rgb(133,111,72)"/>
<title>P3 → C7: 271.01 M/s</title>
<rect x="630" y="280" width="59" height="59" fill="rgb(93,83,78)"/>
<title>P3 → C8: 226.06 M/s</title>
<rect x="690" y="280" width="59" height="59" fill="rgb(110,95,75)"/>
<title>P3 → C9: 244.97 M/s</title>
<rect x="150" y="340" width="59" height="59" fill="rgb(146,120,70)"/>
<title>P4 → C0: 285.20 M/s</title>
<rect x="210" y="340" width="59" height="59" fill="rgb(178,141,65)"/>
<title>P4 → C1: 320.69 M/s</title>
<rect x="270" y="340" width="59" height="59" fill="rgb(119,101,74)"/>
<title>P4 → C2: 255.24 M/s</title>
<rect x="330" y="340" width="59" height="59" fill="rgb(73,69,81)"/>
<title>P4 → C3: 203.64 M/s</title>
<rect x="390" y="340" width="59" height="59" fill="#cbd5e1"/>
<rect x="450" y="340" width="59" height="59" fill="rgb(132,110,72)"/>
<title>P4 → C5: 269.34 M/s</title>
<rect x="510" y="340" width="59" height="59" fill="rgb(153,124,69)"/>
<title>P4 → C6: 292.22 M/s</title>
<rect x="570" y="340" width="59" height="59" fill="rgb(222,171,58)"/>
<title>P4 → C7: 369.43 M/s</title>
<rect x="630" y="340" width="59" height="59" fill="rgb(194,152,62)"/>
<title>P4 → C8: 338.20 M/s</title>
<rect x="690" y="340" width="59" height="59" fill="rgb(239,183,55)"/>
<title>P4 → C9: 388.31 M/s</title>
<rect x="150" y="400" width="59" height="59" fill="rgb(165,132,67)"/>
<title>P5 → C0: 306.15 M/s</title>
<rect x="210" y="400" width="59" height="59" fill="rgb(147,120,69)"/>
<title>P5 → C1: 286.38 M/s</title>
<rect x="270" y="400" width="59" height="59" fill="rgb(168,135,66)"/>
<title>P5 → C2: 309.89 M/s</title>
<rect x="330" y="400" width="59" height="59" fill="rgb(132,110,72)"/>
<title>P5 → C3: 269.12 M/s</title>
<rect x="390" y="400" width="59" height="59" fill="rgb(106,92,76)"/>
<title>P5 → C4: 240.94 M/s</title>
<rect x="450" y="400" width="59" height="59" fill="#cbd5e1"/>
<rect x="510" y="400" width="59" height="59" fill="rgb(174,139,65)"/>
<title>P5 → C6: 316.60 M/s</title>
<rect x="570" y="400" width="59" height="59" fill="rgb(197,154,62)"/>
<title>P5 → C7: 341.98 M/s</title>
<rect x="630" y="400" width="59" height="59" fill="rgb(119,101,74)"/>
<title>P5 → C8: 255.21 M/s</title>
<rect x="690" y="400" width="59" height="59" fill="rgb(154,125,68)"/>
<title>P5 → C9: 294.11 M/s</title>
<rect x="150" y="460" width="59" height="59" fill="rgb(191,150,63)"/>
<title>P6 → C0: 335.10 M/s</title>
<rect x="210" y="460" width="59" height="59" fill="rgb(131,109,72)"/>
<title>P6 → C1: 267.92 M/s</title>
<rect x="270" y="460" width="59" height="59" fill="rgb(122,103,74)"/>
<title>P6 → C2: 257.99 M/s</title>
<rect x="330" y="460" width="59" height="59" fill="rgb(125,105,73)"/>
<title>P6 → C3: 261.74 M/s</title>
<rect x="390" y="460" width="59" height="59" fill="rgb(148,120,69)"/>
<title>P6 → C4: 286.72 M/s</title>
<rect x="450" y="460" width="59" height="59" fill="rgb(134,111,72)"/>
<title>P6 → C5: 271.43 M/s</title>
<rect x="510" y="460" width="59" height="59" fill="#cbd5e1"/>
<rect x="570" y="460" width="59" height="59" fill="rgb(204,159,60)"/>
<title>P6 → C7: 349.28 M/s</title>
<rect x="630" y="460" width="59" height="59" fill="rgb(68,66,82)"/>
<title>P6 → C8: 197.99 M/s</title>
<rect x="690" y="460" width="59" height="59" fill="rgb(159,128,68)"/>
<title>P6 → C9: 299.71 M/s</title>
<rect x="150" y="520" width="59" height="59" fill="rgb(201,157,61)"/>
<title>P7 → C0: 345.71 M/s</title>
<rect x="210" y="520" width="59" height="59" fill="rgb(139,115,71)"/>
<title>P7 → C1: 277.69 M/s</title>
<rect x="270" y="520" width="59" height="59" fill="rgb(132,110,72)"/>
<title>P7 → C2: 269.89 M/s</title>
<rect x="330" y="520" width="59" height="59" fill="rgb(186,147,63)"/>
<title>P7 → C3: 329.64 M/s</title>
<rect x="390" y="520" width="59" height="59" fill="rgb(107,93,76)"/>
<title>P7 → C4: 241.90 M/s</title>
<rect x="450" y="520" width="59" height="59" fill="rgb(173,137,65)"/>
<title>P7 → C5: 314.45 M/s</title>
<rect x="510" y="520" width="59" height="59" fill="rgb(143,117,70)"/>
<title>P7 → C6: 281.72 M/s</title>
<rect x="570" y="520" width="59" height="59" fill="#cbd5e1"/>
<rect x="630" y="520" width="59" height="59" fill="rgb(138,114,71)"/>
<title>P7 → C8: 276.38 M/s</title>
<rect x="690" y="520" width="59" height="59" fill="rgb(189,149,63)"/>
<title>P7 → C9: 332.56 M/s</title>
<rect x="150" y="580" width="59" height="59" fill="rgb(122,103,73)"/>
<title>P8 → C0: 258.52 M/s</title>
<rect x="210" y="580" width="59" height="59" fill="rgb(81,75,80)"/>
<title>P8 → C1: 212.69 M/s</title>
<rect x="270" y="580" width="59" height="59" fill="rgb(152,124,69)"/>
<title>P8 → C2: 291.92 M/s</title>
<rect x="330" y="580" width="59" height="59" fill="rgb(158,127,68)"/>
<title>P8 → C3: 298.08 M/s</title>
<rect x="390" y="580" width="59" height="59" fill="rgb(122,103,73)"/>
<title>P8 → C4: 258.70 M/s</title>
<rect x="450" y="580" width="59" height="59" fill="rgb(109,94,76)"/>
<title>P8 → C5: 244.00 M/s</title>
<rect x="510" y="580" width="59" height="59" fill="rgb(100,88,77)"/>
<title>P8 → C6: 233.56 M/s</title>
<rect x="570" y="580" width="59" height="59" fill="rgb(186,147,63)"/>
<title>P8 → C7: 329.40 M/s</title>
<rect x="630" y="580" width="59" height="59" fill="#cbd5e1"/>
<rect x="690" y="580" width="59" height="59" fill="rgb(110,95,75)"/>
<title>P8 → C9: 245.20 M/s</title>
<rect x="150" y="640" width="59" height="59" fill="rgb(189,149,63)"/>
<title>P9 → C0: 332.67 M/s</title>
<rect x="210" y="640" width="59" height="59" fill="rgb(134,111,72)"/>
<title>P9 → C1: 272.00 M/s</title>
<rect x="270" y="640" width="59" height="59" fill="rgb(176,140,65)"/>
<title>P9 → C2: 318.66 M/s</title>
<rect x="330" y="640" width="59" height="59" fill="rgb(59,60,84)"/>
<title>P9 → C3: 188.07 M/s</title>
<rect x="390" y="640" width="59" height="59" fill="rgb(154,125,68)"/>
<title>P9 → C4: 294.12 M/s</title>
<rect x="450" y="640" width="59" height="59" fill="rgb(132,110,72)"/>
<title>P9 → C5: 268.92 M/s</title>
<rect x="510" y="640" width="59" height="59" fill="rgb(143,118,70)"/>
<title>P9 → C6: 282.11 M/s</title>
<rect x="570" y="640" width="59" height="59" fill="rgb(116,99,74)"/>
<title>P9 → C7: 251.64 M/s</title>
<rect x="630" y="640" width="59" height="59" fill="rgb(156,126,68)"/>
<title>P9 → C8: 296.44 M/s</title>
<rect x="690" y="640" width="59" height="59" fill="#cbd5e1"/>
<text x="150" y="730" class="small">min 146.8 M/s</text>
<text x="750" y="730" text-anchor="end" class="small">max 391.0 M/s</text>
</svg>