<svg xmlns="http://www.w3.org/2000/svg" width="313" height="390" viewBox="0 0 313 390" role="img" aria-label="Scalar API — directed CPU-pair throughput">
<style>text{font-family:ui-sans-serif,system-ui,sans-serif;fill:#172033}.title{font-size:22px;font-weight:700}.subtitle{font-size:12px;fill:#475569}.axis{font-size:11px;font-weight:600}.tick{font-size:10px;fill:#475569}.note{font-size:10px;fill:#64748b}.legend-label{font-size:11px;font-weight:600}</style>
<rect width="100%" height="100%" fill="#ffffff"/>
<defs><linearGradient id="throughput-rainbow" x1="0" x2="1" y1="0" y2="0"><stop offset="0%" stop-color="#0000ff"/><stop offset="20%" stop-color="#00bfff"/><stop offset="40%" stop-color="#00ff00"/><stop offset="60%" stop-color="#ffff00"/><stop offset="80%" stop-color="#ff7f00"/><stop offset="100%" stop-color="#ff0000"/></linearGradient><pattern id="self-pair" width="8" height="8" patternUnits="userSpaceOnUse" patternTransform="rotate(45)"><rect width="8" height="8" fill="#dbe3ee"/><line x1="0" y1="0" x2="0" y2="8" stroke="#94a3b8" stroke-width="3"/></pattern></defs>
<text x="28" y="32" class="title">Scalar API — directed CPU-pair throughput</text>
<text x="28" y="53" class="subtitle">Rows: producer CPU · columns: consumer CPU · each cell: median M items/s. advisory macOS affinity; no hard logical-CPU pinning.</text>
<text x="185.0" y="70" text-anchor="middle" class="axis">Consumer logical CPU →</text>
<text x="22" y="192.0" transform="rotate(-90 22 192.0)" text-anchor="middle" class="axis">Producer logical CPU →</text>
<text x="113.0" y="104" text-anchor="middle" class="tick">0</text>
<text x="98" y="123.0" text-anchor="end" class="tick">0</text>
<text x="129.0" y="104" text-anchor="middle" class="tick">1</text>
<text x="98" y="139.0" text-anchor="end" class="tick">1</text>
<text x="145.0" y="104" text-anchor="middle" class="tick">2</text>
<text x="98" y="155.0" text-anchor="end" class="tick">2</text>
<text x="161.0" y="104" text-anchor="middle" class="tick">3</text>
<text x="98" y="171.0" text-anchor="end" class="tick">3</text>
<text x="177.0" y="104" text-anchor="middle" class="tick">4</text>
<text x="98" y="187.0" text-anchor="end" class="tick">4</text>
<text x="193.0" y="104" text-anchor="middle" class="tick">5</text>
<text x="98" y="203.0" text-anchor="end" class="tick">5</text>
<text x="209.0" y="104" text-anchor="middle" class="tick">6</text>
<text x="98" y="219.0" text-anchor="end" class="tick">6</text>
<text x="225.0" y="104" text-anchor="middle" class="tick">7</text>
<text x="98" y="235.0" text-anchor="end" class="tick">7</text>
<text x="241.0" y="104" text-anchor="middle" class="tick">8</text>
<text x="98" y="251.0" text-anchor="end" class="tick">8</text>
<text x="257.0" y="104" text-anchor="middle" class="tick">9</text>
<text x="98" y="267.0" text-anchor="end" class="tick">9</text>
<rect x="105" y="112" width="16.1" height="16.1" fill="url(#self-pair)"><title>CPU 0 → itself: excluded by benchmark design</title></rect>
<rect x="121" y="112" width="16.1" height="16.1" fill="rgb(182,255,0)"><title>Producer CPU 0 → consumer CPU 1: median 367.634 M items/s</title></rect>
<rect x="137" y="112" width="16.1" height="16.1" fill="rgb(0,255,2)"><title>Producer CPU 0 → consumer CPU 2: median 334.883 M items/s</title></rect>
<rect x="153" y="112" width="16.1" height="16.1" fill="rgb(0,250,21)"><title>Producer CPU 0 → consumer CPU 3: median 331.579 M items/s</title></rect>
<rect x="169" y="112" width="16.1" height="16.1" fill="rgb(255,226,0)"><title>Producer CPU 0 → consumer CPU 4: median 390.884 M items/s</title></rect>
<rect x="185" y="112" width="16.1" height="16.1" fill="rgb(89,255,0)"><title>Producer CPU 0 → consumer CPU 5: median 351.095 M items/s</title></rect>
<rect x="201" y="112" width="16.1" height="16.1" fill="rgb(255,117,0)"><title>Producer CPU 0 → consumer CPU 6: median 429.259 M items/s</title></rect>
<rect x="217" y="112" width="16.1" height="16.1" fill="rgb(144,255,0)"><title>Producer CPU 0 → consumer CPU 7: median 360.731 M items/s</title></rect>
<rect x="233" y="112" width="16.1" height="16.1" fill="rgb(0,248,28)"><title>Producer CPU 0 → consumer CPU 8: median 330.191 M items/s</title></rect>
<rect x="249" y="112" width="16.1" height="16.1" fill="rgb(212,255,0)"><title>Producer CPU 0 → consumer CPU 9: median 372.821 M items/s</title></rect>
<rect x="105" y="128" width="16.1" height="16.1" fill="rgb(255,166,0)"><title>Producer CPU 1 → consumer CPU 0: median 411.892 M items/s</title></rect>
<rect x="121" y="128" width="16.1" height="16.1" fill="url(#self-pair)"><title>CPU 1 → itself: excluded by benchmark design</title></rect>
<rect x="137" y="128" width="16.1" height="16.1" fill="rgb(115,255,0)"><title>Producer CPU 1 → consumer CPU 2: median 355.653 M items/s</title></rect>
<rect x="153" y="128" width="16.1" height="16.1" fill="rgb(132,255,0)"><title>Producer CPU 1 → consumer CPU 3: median 358.756 M items/s</title></rect>
<rect x="169" y="128" width="16.1" height="16.1" fill="rgb(255,245,0)"><title>Producer CPU 1 → consumer CPU 4: median 383.983 M items/s</title></rect>
<rect x="185" y="128" width="16.1" height="16.1" fill="rgb(0,184,255)"><title>Producer CPU 1 → consumer CPU 5: median 288.352 M items/s</title></rect>
<rect x="201" y="128" width="16.1" height="16.1" fill="rgb(29,255,0)"><title>Producer CPU 1 → consumer CPU 6: median 340.335 M items/s</title></rect>
<rect x="217" y="128" width="16.1" height="16.1" fill="rgb(255,195,0)"><title>Producer CPU 1 → consumer CPU 7: median 401.898 M items/s</title></rect>
<rect x="233" y="128" width="16.1" height="16.1" fill="rgb(0,249,23)"><title>Producer CPU 1 → consumer CPU 8: median 331.198 M items/s</title></rect>
<rect x="249" y="128" width="16.1" height="16.1" fill="rgb(255,151,0)"><title>Producer CPU 1 → consumer CPU 9: median 417.399 M items/s</title></rect>
<rect x="105" y="144" width="16.1" height="16.1" fill="rgb(255,0,0)"><title>Producer CPU 2 → consumer CPU 0: median 471.153 M items/s</title></rect>
<rect x="121" y="144" width="16.1" height="16.1" fill="rgb(255,150,0)"><title>Producer CPU 2 → consumer CPU 1: median 417.832 M items/s</title></rect>
<rect x="137" y="144" width="16.1" height="16.1" fill="url(#self-pair)"><title>CPU 2 → itself: excluded by benchmark design</title></rect>
<rect x="153" y="144" width="16.1" height="16.1" fill="rgb(255,137,0)"><title>Producer CPU 2 → consumer CPU 3: median 422.373 M items/s</title></rect>
<rect x="169" y="144" width="16.1" height="16.1" fill="rgb(255,84,0)"><title>Producer CPU 2 → consumer CPU 4: median 441.141 M items/s</title></rect>
<rect x="185" y="144" width="16.1" height="16.1" fill="rgb(255,186,0)"><title>Producer CPU 2 → consumer CPU 5: median 405.041 M items/s</title></rect>
<rect x="201" y="144" width="16.1" height="16.1" fill="rgb(0,166,255)"><title>Producer CPU 2 → consumer CPU 6: median 284.065 M items/s</title></rect>
<rect x="217" y="144" width="16.1" height="16.1" fill="rgb(0,224,125)"><title>Producer CPU 2 → consumer CPU 7: median 313.037 M items/s</title></rect>
<rect x="233" y="144" width="16.1" height="16.1" fill="rgb(255,193,0)"><title>Producer CPU 2 → consumer CPU 8: median 402.375 M items/s</title></rect>
<rect x="249" y="144" width="16.1" height="16.1" fill="rgb(255,139,0)"><title>Producer CPU 2 → consumer CPU 9: median 421.645 M items/s</title></rect>
<rect x="105" y="160" width="16.1" height="16.1" fill="rgb(0,213,165)"><title>Producer CPU 3 → consumer CPU 0: median 305.827 M items/s</title></rect>
<rect x="121" y="160" width="16.1" height="16.1" fill="rgb(21,255,0)"><title>Producer CPU 3 → consumer CPU 1: median 338.910 M items/s</title></rect>
<rect x="137" y="160" width="16.1" height="16.1" fill="rgb(23,255,0)"><title>Producer CPU 3 → consumer CPU 2: median 339.351 M items/s</title></rect>
<rect x="153" y="160" width="16.1" height="16.1" fill="url(#self-pair)"><title>CPU 3 → itself: excluded by benchmark design</title></rect>
<rect x="169" y="160" width="16.1" height="16.1" fill="rgb(255,161,0)"><title>Producer CPU 3 → consumer CPU 4: median 413.794 M items/s</title></rect>
<rect x="185" y="160" width="16.1" height="16.1" fill="rgb(55,255,0)"><title>Producer CPU 3 → consumer CPU 5: median 344.984 M items/s</title></rect>
<rect x="201" y="160" width="16.1" height="16.1" fill="rgb(0,240,62)"><title>Producer CPU 3 → consumer CPU 6: median 324.267 M items/s</title></rect>
<rect x="217" y="160" width="16.1" height="16.1" fill="rgb(0,194,244)"><title>Producer CPU 3 → consumer CPU 7: median 291.827 M items/s</title></rect>
<rect x="233" y="160" width="16.1" height="16.1" fill="rgb(0,176,255)"><title>Producer CPU 3 → consumer CPU 8: median 286.358 M items/s</title></rect>
<rect x="249" y="160" width="16.1" height="16.1" fill="rgb(41,255,0)"><title>Producer CPU 3 → consumer CPU 9: median 342.462 M items/s</title></rect>
<rect x="105" y="176" width="16.1" height="16.1" fill="rgb(130,255,0)"><title>Producer CPU 4 → consumer CPU 0: median 358.312 M items/s</title></rect>
<rect x="121" y="176" width="16.1" height="16.1" fill="rgb(123,255,0)"><title>Producer CPU 4 → consumer CPU 1: median 357.057 M items/s</title></rect>
<rect x="137" y="176" width="16.1" height="16.1" fill="rgb(255,195,0)"><title>Producer CPU 4 → consumer CPU 2: median 401.792 M items/s</title></rect>
<rect x="153" y="176" width="16.1" height="16.1" fill="rgb(0,230,98)"><title>Producer CPU 4 → consumer CPU 3: median 317.801 M items/s</title></rect>
<rect x="169" y="176" width="16.1" height="16.1" fill="url(#self-pair)"><title>CPU 4 → itself: excluded by benchmark design</title></rect>
<rect x="185" y="176" width="16.1" height="16.1" fill="rgb(183,255,0)"><title>Producer CPU 4 → consumer CPU 5: median 367.779 M items/s</title></rect>
<rect x="201" y="176" width="16.1" height="16.1" fill="rgb(220,255,0)"><title>Producer CPU 4 → consumer CPU 6: median 374.378 M items/s</title></rect>
<rect x="217" y="176" width="16.1" height="16.1" fill="rgb(0,82,255)"><title>Producer CPU 4 → consumer CPU 7: median 264.151 M items/s</title></rect>
<rect x="233" y="176" width="16.1" height="16.1" fill="rgb(255,90,0)"><title>Producer CPU 4 → consumer CPU 8: median 439.084 M items/s</title></rect>
<rect x="249" y="176" width="16.1" height="16.1" fill="rgb(48,255,0)"><title>Producer CPU 4 → consumer CPU 9: median 343.777 M items/s</title></rect>
<rect x="105" y="192" width="16.1" height="16.1" fill="rgb(209,255,0)"><title>Producer CPU 5 → consumer CPU 0: median 372.406 M items/s</title></rect>
<rect x="121" y="192" width="16.1" height="16.1" fill="rgb(0,199,225)"><title>Producer CPU 5 → consumer CPU 1: median 295.276 M items/s</title></rect>
<rect x="137" y="192" width="16.1" height="16.1" fill="rgb(178,255,0)"><title>Producer CPU 5 → consumer CPU 2: median 366.797 M items/s</title></rect>
<rect x="153" y="192" width="16.1" height="16.1" fill="rgb(255,185,0)"><title>Producer CPU 5 → consumer CPU 3: median 405.449 M items/s</title></rect>
<rect x="169" y="192" width="16.1" height="16.1" fill="rgb(0,233,88)"><title>Producer CPU 5 → consumer CPU 4: median 319.633 M items/s</title></rect>
<rect x="185" y="192" width="16.1" height="16.1" fill="url(#self-pair)"><title>CPU 5 → itself: excluded by benchmark design</title></rect>
<rect x="201" y="192" width="16.1" height="16.1" fill="rgb(0,248,30)"><title>Producer CPU 5 → consumer CPU 6: median 329.922 M items/s</title></rect>
<rect x="217" y="192" width="16.1" height="16.1" fill="rgb(0,140,255)"><title>Producer CPU 5 → consumer CPU 7: median 277.919 M items/s</title></rect>
<rect x="233" y="192" width="16.1" height="16.1" fill="rgb(103,255,0)"><title>Producer CPU 5 → consumer CPU 8: median 353.455 M items/s</title></rect>
<rect x="249" y="192" width="16.1" height="16.1" fill="rgb(128,255,0)"><title>Producer CPU 5 → consumer CPU 9: median 358.053 M items/s</title></rect>
<rect x="105" y="208" width="16.1" height="16.1" fill="rgb(29,255,0)"><title>Producer CPU 6 → consumer CPU 0: median 340.455 M items/s</title></rect>
<rect x="121" y="208" width="16.1" height="16.1" fill="rgb(172,255,0)"><title>Producer CPU 6 → consumer CPU 1: median 365.853 M items/s</title></rect>
<rect x="137" y="208" width="16.1" height="16.1" fill="rgb(255,210,0)"><title>Producer CPU 6 → consumer CPU 2: median 396.442 M items/s</title></rect>
<rect x="153" y="208" width="16.1" height="16.1" fill="rgb(207,255,0)"><title>Producer CPU 6 → consumer CPU 3: median 372.009 M items/s</title></rect>
<rect x="169" y="208" width="16.1" height="16.1" fill="rgb(68,255,0)"><title>Producer CPU 6 → consumer CPU 4: median 347.226 M items/s</title></rect>
<rect x="185" y="208" width="16.1" height="16.1" fill="rgb(0,118,255)"><title>Producer CPU 6 → consumer CPU 5: median 272.535 M items/s</title></rect>
<rect x="201" y="208" width="16.1" height="16.1" fill="url(#self-pair)"><title>CPU 6 → itself: excluded by benchmark design</title></rect>
<rect x="217" y="208" width="16.1" height="16.1" fill="rgb(250,255,0)"><title>Producer CPU 6 → consumer CPU 7: median 379.584 M items/s</title></rect>
<rect x="233" y="208" width="16.1" height="16.1" fill="rgb(0,237,71)"><title>Producer CPU 6 → consumer CPU 8: median 322.648 M items/s</title></rect>
<rect x="249" y="208" width="16.1" height="16.1" fill="rgb(90,255,0)"><title>Producer CPU 6 → consumer CPU 9: median 351.242 M items/s</title></rect>
<rect x="105" y="224" width="16.1" height="16.1" fill="rgb(0,211,175)"><title>Producer CPU 7 → consumer CPU 0: median 304.124 M items/s</title></rect>
<rect x="121" y="224" width="16.1" height="16.1" fill="rgb(255,229,0)"><title>Producer CPU 7 → consumer CPU 1: median 389.760 M items/s</title></rect>
<rect x="137" y="224" width="16.1" height="16.1" fill="rgb(255,197,0)"><title>Producer CPU 7 → consumer CPU 2: median 401.127 M items/s</title></rect>
<rect x="153" y="224" width="16.1" height="16.1" fill="rgb(255,85,0)"><title>Producer CPU 7 → consumer CPU 3: median 440.837 M items/s</title></rect>
<rect x="169" y="224" width="16.1" height="16.1" fill="rgb(0,0,255)"><title>Producer CPU 7 → consumer CPU 4: median 244.608 M items/s</title></rect>
<rect x="185" y="224" width="16.1" height="16.1" fill="rgb(80,255,0)"><title>Producer CPU 7 → consumer CPU 5: median 349.353 M items/s</title></rect>
<rect x="201" y="224" width="16.1" height="16.1" fill="rgb(0,186,255)"><title>Producer CPU 7 → consumer CPU 6: median 288.745 M items/s</title></rect>
<rect x="217" y="224" width="16.1" height="16.1" fill="url(#self-pair)"><title>CPU 7 → itself: excluded by benchmark design</title></rect>
<rect x="233" y="224" width="16.1" height="16.1" fill="rgb(20,255,0)"><title>Producer CPU 7 → consumer CPU 8: median 338.746 M items/s</title></rect>
<rect x="249" y="224" width="16.1" height="16.1" fill="rgb(174,255,0)"><title>Producer CPU 7 → consumer CPU 9: median 366.059 M items/s</title></rect>
<rect x="105" y="240" width="16.1" height="16.1" fill="rgb(247,255,0)"><title>Producer CPU 8 → consumer CPU 0: median 379.107 M items/s</title></rect>
<rect x="121" y="240" width="16.1" height="16.1" fill="rgb(0,174,255)"><title>Producer CPU 8 → consumer CPU 1: median 285.920 M items/s</title></rect>
<rect x="137" y="240" width="16.1" height="16.1" fill="rgb(0,218,146)"><title>Producer CPU 8 → consumer CPU 2: median 309.361 M items/s</title></rect>
<rect x="153" y="240" width="16.1" height="16.1" fill="rgb(0,231,97)"><title>Producer CPU 8 → consumer CPU 3: median 317.998 M items/s</title></rect>
<rect x="169" y="240" width="16.1" height="16.1" fill="rgb(10,255,0)"><title>Producer CPU 8 → consumer CPU 4: median 336.923 M items/s</title></rect>
<rect x="185" y="240" width="16.1" height="16.1" fill="rgb(0,96,255)"><title>Producer CPU 8 → consumer CPU 5: median 267.464 M items/s</title></rect>
<rect x="201" y="240" width="16.1" height="16.1" fill="rgb(175,255,0)"><title>Producer CPU 8 → consumer CPU 6: median 366.393 M items/s</title></rect>
<rect x="217" y="240" width="16.1" height="16.1" fill="rgb(94,255,0)"><title>Producer CPU 8 → consumer CPU 7: median 351.895 M items/s</title></rect>
<rect x="233" y="240" width="16.1" height="16.1" fill="url(#self-pair)"><title>CPU 8 → itself: excluded by benchmark design</title></rect>
<rect x="249" y="240" width="16.1" height="16.1" fill="rgb(0,249,26)"><title>Producer CPU 8 → consumer CPU 9: median 330.662 M items/s</title></rect>
<rect x="105" y="256" width="16.1" height="16.1" fill="rgb(0,221,137)"><title>Producer CPU 9 → consumer CPU 0: median 310.964 M items/s</title></rect>
<rect x="121" y="256" width="16.1" height="16.1" fill="rgb(0,252,11)"><title>Producer CPU 9 → consumer CPU 1: median 333.251 M items/s</title></rect>
<rect x="137" y="256" width="16.1" height="16.1" fill="rgb(0,227,111)"><title>Producer CPU 9 → consumer CPU 2: median 315.534 M items/s</title></rect>
<rect x="153" y="256" width="16.1" height="16.1" fill="rgb(51,255,0)"><title>Producer CPU 9 → consumer CPU 3: median 344.202 M items/s</title></rect>
<rect x="169" y="256" width="16.1" height="16.1" fill="rgb(0,247,32)"><title>Producer CPU 9 → consumer CPU 4: median 329.560 M items/s</title></rect>
<rect x="185" y="256" width="16.1" height="16.1" fill="rgb(0,253,8)"><title>Producer CPU 9 → consumer CPU 5: median 333.752 M items/s</title></rect>
<rect x="201" y="256" width="16.1" height="16.1" fill="rgb(190,255,0)"><title>Producer CPU 9 → consumer CPU 6: median 369.009 M items/s</title></rect>
<rect x="217" y="256" width="16.1" height="16.1" fill="rgb(255,89,0)"><title>Producer CPU 9 → consumer CPU 7: median 439.292 M items/s</title></rect>
<rect x="233" y="256" width="16.1" height="16.1" fill="rgb(255,211,0)"><title>Producer CPU 9 → consumer CPU 8: median 395.940 M items/s</title></rect>
<rect x="249" y="256" width="16.1" height="16.1" fill="url(#self-pair)"><title>CPU 9 → itself: excluded by benchmark design</title></rect>
<text x="105" y="308" class="legend-label">Median throughput (M items/s)</text>
<rect x="105" y="316" width="160" height="16" rx="2" fill="url(#throughput-rainbow)" stroke="#475569"/>
<line x1="105" y1="332" x2="105" y2="337" stroke="#334155"/>
<text x="105" y="351" text-anchor="middle" class="tick">245</text>
<line x1="145.0" y1="332" x2="145.0" y2="337" stroke="#334155"/>
<text x="145.0" y="351" text-anchor="middle" class="tick">301</text>
<line x1="185.0" y1="332" x2="185.0" y2="337" stroke="#334155"/>
<text x="185.0" y="351" text-anchor="middle" class="tick">358</text>
<line x1="225.0" y1="332" x2="225.0" y2="337" stroke="#334155"/>
<text x="225.0" y="351" text-anchor="middle" class="tick">415</text>
<line x1="265" y1="332" x2="265" y2="337" stroke="#334155"/>
<text x="265" y="351" text-anchor="middle" class="tick">471</text>
<text x="105" y="367" class="note">Slowest = blue · fastest = red · linear scale for this view</text>
<rect x="293" y="318" width="14" height="14" fill="url(#self-pair)"/><text x="313" y="330" class="note">self pair excluded</text>
</svg>