<svg xmlns="http://www.w3.org/2000/svg" width="900" height="440" viewBox="0 0 900 440">
<style>text{font:13px sans-serif;fill:#172033}.title{font-size:20px;font-weight:bold}.small{font-size:11px}</style>
<rect width="100%" height="100%" fill="#f8fafc"/>
<text x="20" y="30" class="title">Batch-width depth — median across all ordered CPU pairs</text>
<text x="20" y="52" class="small">advisory macOS affinity; no hard logical-CPU pinning. Error bars omitted: inspect CSV for every pair and round.</text>
<line x1="70" y1="375" x2="870" y2="375" stroke="#334155"/><line x1="70" y1="375" x2="70" y2="60" stroke="#334155"/>
<rect x="79.52941176470588" y="284.61467704375536" width="28" height="90.38532295624465" rx="3" fill="#14b8a6"/><title>Scalar: 351.17 M/s median</title>
<text x="93.52941176470588" y="395" text-anchor="middle" class="small">Scalar</text>
<text x="93.52941176470588" y="279.61467704375536" text-anchor="middle" class="small">351</text>
<rect x="126.58823529411765" y="291.924138987621" width="28" height="83.07586101237898" rx="3" fill="#2563eb"/><title>1: 322.77 M/s median</title>
<text x="140.58823529411765" y="395" text-anchor="middle" class="small">1</text>
<text x="140.58823529411765" y="286.924138987621" text-anchor="middle" class="small">323</text>
<rect x="173.6470588235294" y="211.49599215590146" width="28" height="163.50400784409854" rx="3" fill="#2563eb"/><title>2: 635.25 M/s median</title>
<text x="187.6470588235294" y="395" text-anchor="middle" class="small">2</text>
<text x="187.6470588235294" y="206.49599215590146" text-anchor="middle" class="small">635</text>
<rect x="220.7058823529412" y="253.92157739919108" width="28" height="121.07842260080892" rx="3" fill="#2563eb"/><title>3: 470.42 M/s median</title>
<text x="234.7058823529412" y="395" text-anchor="middle" class="small">3</text>
<text x="234.7058823529412" y="248.92157739919108" text-anchor="middle" class="small">470</text>
<rect x="267.7647058823529" y="248.73103321485473" width="28" height="126.26896678514527" rx="3" fill="#2563eb"/><title>4: 490.59 M/s median</title>
<text x="281.7647058823529" y="395" text-anchor="middle" class="small">4</text>
<text x="281.7647058823529" y="243.73103321485473" text-anchor="middle" class="small">491</text>
<rect x="314.8235294117647" y="219.17402867998527" width="28" height="155.82597132001473" rx="3" fill="#2563eb"/><title>5: 605.42 M/s median</title>
<text x="328.8235294117647" y="395" text-anchor="middle" class="small">5</text>
<text x="328.8235294117647" y="214.17402867998527" text-anchor="middle" class="small">605</text>
<rect x="361.88235294117646" y="206.0192364260326" width="28" height="168.9807635739674" rx="3" fill="#2563eb"/><title>6: 656.53 M/s median</title>
<text x="375.88235294117646" y="395" text-anchor="middle" class="small">6</text>
<text x="375.88235294117646" y="201.0192364260326" text-anchor="middle" class="small">657</text>
<rect x="408.94117647058823" y="201.17551783306777" width="28" height="173.82448216693223" rx="3" fill="#2563eb"/><title>7: 675.35 M/s median</title>
<text x="422.94117647058823" y="395" text-anchor="middle" class="small">7</text>
<text x="422.94117647058823" y="196.17551783306777" text-anchor="middle" class="small">675</text>
<rect x="456.0" y="129.60860399558766" width="28" height="245.39139600441234" rx="3" fill="#2563eb"/><title>8: 953.40 M/s median</title>
<text x="470.0" y="395" text-anchor="middle" class="small">8</text>
<text x="470.0" y="124.60860399558766" text-anchor="middle" class="small">953</text>
<rect x="503.0588235294117" y="142.08518813580096" width="28" height="232.91481186419904" rx="3" fill="#2563eb"/><title>9: 904.93 M/s median</title>
<text x="517.0588235294117" y="395" text-anchor="middle" class="small">9</text>
<text x="517.0588235294117" y="137.08518813580096" text-anchor="middle" class="small">905</text>
<rect x="550.1176470588235" y="104.22380193651179" width="28" height="270.7761980634882" rx="3" fill="#2563eb"/><title>10: 1052.03 M/s median</title>
<text x="564.1176470588235" y="395" text-anchor="middle" class="small">10</text>
<text x="564.1176470588235" y="99.22380193651179" text-anchor="middle" class="small">1052</text>
<rect x="597.1764705882352" y="112.18727785267805" width="28" height="262.81272214732195" rx="3" fill="#2563eb"/><title>11: 1021.09 M/s median</title>
<text x="611.1764705882352" y="395" text-anchor="middle" class="small">11</text>
<text x="611.1764705882352" y="107.18727785267805" text-anchor="middle" class="small">1021</text>
<rect x="644.2352941176471" y="69.31217060914321" width="28" height="305.6878293908568" rx="3" fill="#2563eb"/><title>12: 1187.67 M/s median</title>
<text x="658.2352941176471" y="395" text-anchor="middle" class="small">12</text>
<text x="658.2352941176471" y="64.31217060914321" text-anchor="middle" class="small">1188</text>
<rect x="691.2941176470588" y="79.26780242676796" width="28" height="295.73219757323204" rx="3" fill="#2563eb"/><title>13: 1148.99 M/s median</title>
<text x="705.2941176470588" y="395" text-anchor="middle" class="small">13</text>
<text x="705.2941176470588" y="74.26780242676796" text-anchor="middle" class="small">1149</text>
<rect x="738.3529411764706" y="65.3780487804878" width="28" height="309.6219512195122" rx="3" fill="#2563eb"/><title>14: 1202.95 M/s median</title>
<text x="752.3529411764706" y="395" text-anchor="middle" class="small">14</text>
<text x="752.3529411764706" y="60.3780487804878" text-anchor="middle" class="small">1203</text>
<rect x="785.4117647058823" y="73.12403480818728" width="28" height="301.8759651918127" rx="3" fill="#2563eb"/><title>15: 1172.86 M/s median</title>
<text x="799.4117647058823" y="395" text-anchor="middle" class="small">15</text>
<text x="799.4117647058823" y="68.12403480818728" text-anchor="middle" class="small">1173</text>
<rect x="832.4705882352941" y="60.0" width="28" height="315.0" rx="3" fill="#2563eb"/><title>16: 1223.85 M/s median</title>
<text x="846.4705882352941" y="395" text-anchor="middle" class="small">16</text>
<text x="846.4705882352941" y="55.0" text-anchor="middle" class="small">1224</text>
<text x="70" y="422" class="small">Scalar API is not a batch width. Fixed widths begin at 1.</text>
<text x="62" y="68" text-anchor="end" class="small">1224 M/s</text>
</svg>