<svg xmlns="http://www.w3.org/2000/svg" width="900" height="721" viewBox="0 0 900 721">
<style>text{font:12px sans-serif;fill:#e2e8f0}.small{font-size:10px}.title{font-size:20px;font-weight:bold}.hint{font-size:11px;fill:#94a3b8}.slice{transition:opacity .15s}.slice:hover{opacity:1!important}.legend{cursor:pointer}.legend:hover{fill:#fff}</style>
<rect width="100%" height="100%" fill="#07111f"/>
<text x="24" y="30" class="title">FastQueue 3D topology heat map</text>
<text x="24" y="51" class="hint">X: producer logical CPU · Y: consumer logical CPU · Z/depth: scalar or fixed batch width · color: median M items/s (one global scale)</text>
<text x="24" y="69" class="hint">Exploded layers prevent occlusion. Hover voxel for exact path; click legend mode to isolate depth slice.</text>
<g class="slice" id="slice-0">
<g><polygon points="166,587 142,599 142,603 166,591" fill="rgb(19,20,81)"/><polygon points="118,587 142,599 142,603 118,591" fill="rgb(25,26,106)"/><polygon points="142,575 166,587 142,599 118,587" fill="rgb(33,35,140)" stroke="#0f172a" stroke-width=".4"/><title>Scalar API: producer CPU 0 → consumer CPU 1; 296.700 M items/s</title></g>
<g><polygon points="142,599 118,611 118,615 142,603" fill="rgb(19,20,80)"/><polygon points="94,599 118,611 118,615 94,603" fill="rgb(25,27,105)"/><polygon points="118,587 142,599 118,611 94,599" fill="rgb(34,36,139)" stroke="#0f172a" stroke-width=".4"/><title>Scalar API: producer CPU 0 → consumer CPU 2; 300.622 M items/s</title></g>
<g><polygon points="118,611 94,623 94,627 118,615" fill="rgb(19,20,80)"/><polygon points="70,611 94,623 94,627 70,615" fill="rgb(25,26,105)"/><polygon points="94,599 118,611 94,623 70,611" fill="rgb(33,35,139)" stroke="#0f172a" stroke-width=".4"/><title>Scalar API: producer CPU 0 → consumer CPU 3; 299.385 M items/s</title></g>
<g><polygon points="214,587 190,599 190,603 214,591" fill="rgb(19,20,80)"/><polygon points="166,587 190,599 190,603 166,591" fill="rgb(25,26,105)"/><polygon points="190,575 214,587 190,599 166,587" fill="rgb(33,35,139)" stroke="#0f172a" stroke-width=".4"/><title>Scalar API: producer CPU 1 → consumer CPU 0; 297.983 M items/s</title></g>
<g><polygon points="166,611 142,623 142,627 166,615" fill="rgb(19,20,80)"/><polygon points="118,611 142,623 142,627 118,615" fill="rgb(25,26,105)"/><polygon points="142,599 166,611 142,623 118,611" fill="rgb(33,35,139)" stroke="#0f172a" stroke-width=".4"/><title>Scalar API: producer CPU 1 → consumer CPU 2; 299.482 M items/s</title></g>
<g><polygon points="142,623 118,635 118,639 142,627" fill="rgb(19,20,80)"/><polygon points="94,623 118,635 118,639 94,627" fill="rgb(25,26,105)"/><polygon points="118,611 142,623 118,635 94,623" fill="rgb(33,35,139)" stroke="#0f172a" stroke-width=".4"/><title>Scalar API: producer CPU 1 → consumer CPU 3; 298.889 M items/s</title></g>
<g><polygon points="238,599 214,611 214,615 238,603" fill="rgb(19,20,80)"/><polygon points="190,599 214,611 214,615 190,603" fill="rgb(25,27,105)"/><polygon points="214,587 238,599 214,611 190,599" fill="rgb(34,36,139)" stroke="#0f172a" stroke-width=".4"/><title>Scalar API: producer CPU 2 → consumer CPU 0; 300.660 M items/s</title></g>
<g><polygon points="214,611 190,623 190,627 214,615" fill="rgb(19,20,80)"/><polygon points="166,611 190,623 190,627 166,615" fill="rgb(25,26,105)"/><polygon points="190,599 214,611 190,623 166,611" fill="rgb(33,35,139)" stroke="#0f172a" stroke-width=".4"/><title>Scalar API: producer CPU 2 → consumer CPU 1; 297.975 M items/s</title></g>
<g><polygon points="166,635 142,647 142,651 166,639" fill="rgb(19,20,80)"/><polygon points="118,635 142,647 142,651 118,639" fill="rgb(25,26,105)"/><polygon points="142,623 166,635 142,647 118,635" fill="rgb(33,35,139)" stroke="#0f172a" stroke-width=".4"/><title>Scalar API: producer CPU 2 → consumer CPU 3; 299.470 M items/s</title></g>
<g><polygon points="262,611 238,623 238,627 262,615" fill="rgb(19,20,80)"/><polygon points="214,611 238,623 238,627 214,615" fill="rgb(25,26,105)"/><polygon points="238,599 262,611 238,623 214,611" fill="rgb(34,35,139)" stroke="#0f172a" stroke-width=".4"/><title>Scalar API: producer CPU 3 → consumer CPU 0; 299.768 M items/s</title></g>
<g><polygon points="238,623 214,635 214,639 238,627" fill="rgb(19,20,80)"/><polygon points="190,623 214,635 214,639 190,627" fill="rgb(25,26,105)"/><polygon points="214,611 238,623 214,635 190,623" fill="rgb(33,35,139)" stroke="#0f172a" stroke-width=".4"/><title>Scalar API: producer CPU 3 → consumer CPU 1; 297.823 M items/s</title></g>
<g><polygon points="214,635 190,647 190,651 214,639" fill="rgb(19,20,80)"/><polygon points="166,635 190,647 190,651 166,639" fill="rgb(25,26,105)"/><polygon points="190,623 214,635 190,647 166,635" fill="rgb(33,35,139)" stroke="#0f172a" stroke-width=".4"/><title>Scalar API: producer CPU 3 → consumer CPU 2; 299.321 M items/s</title></g>
<text x="60" y="615" text-anchor="end" class="small">Scalar API</text></g>
<g class="slice" id="slice-1">
<g><polygon points="166,531 142,543 142,547 166,535" fill="rgb(19,20,80)"/><polygon points="118,531 142,543 142,547 118,535" fill="rgb(25,26,105)"/><polygon points="142,519 166,531 142,543 118,531" fill="rgb(33,35,139)" stroke="#0f172a" stroke-width=".4"/><title>Fixed 1: producer CPU 0 → consumer CPU 1; 298.844 M items/s</title></g>
<g><polygon points="142,543 118,555 118,559 142,547" fill="rgb(19,20,80)"/><polygon points="94,543 118,555 118,559 94,547" fill="rgb(25,27,105)"/><polygon points="118,531 142,543 118,555 94,543" fill="rgb(34,36,139)" stroke="#0f172a" stroke-width=".4"/><title>Fixed 1: producer CPU 0 → consumer CPU 2; 301.112 M items/s</title></g>
<g><polygon points="118,555 94,567 94,571 118,559" fill="rgb(19,20,80)"/><polygon points="70,555 94,567 94,571 70,559" fill="rgb(25,26,105)"/><polygon points="94,543 118,555 94,567 70,555" fill="rgb(33,35,139)" stroke="#0f172a" stroke-width=".4"/><title>Fixed 1: producer CPU 0 → consumer CPU 3; 299.144 M items/s</title></g>
<g><polygon points="214,531 190,543 190,547 214,535" fill="rgb(19,20,80)"/><polygon points="166,531 190,543 190,547 166,535" fill="rgb(25,26,105)"/><polygon points="190,519 214,531 190,543 166,531" fill="rgb(33,35,139)" stroke="#0f172a" stroke-width=".4"/><title>Fixed 1: producer CPU 1 → consumer CPU 0; 298.307 M items/s</title></g>
<g><polygon points="166,555 142,567 142,571 166,559" fill="rgb(19,20,80)"/><polygon points="118,555 142,567 142,571 118,559" fill="rgb(25,27,105)"/><polygon points="142,543 166,555 142,567 118,555" fill="rgb(34,36,139)" stroke="#0f172a" stroke-width=".4"/><title>Fixed 1: producer CPU 1 → consumer CPU 2; 300.769 M items/s</title></g>
<g><polygon points="142,567 118,579 118,583 142,571" fill="rgb(19,20,80)"/><polygon points="94,567 118,579 118,583 94,571" fill="rgb(25,26,105)"/><polygon points="118,555 142,567 118,579 94,567" fill="rgb(34,35,139)" stroke="#0f172a" stroke-width=".4"/><title>Fixed 1: producer CPU 1 → consumer CPU 3; 299.666 M items/s</title></g>
<g><polygon points="238,543 214,555 214,559 238,547" fill="rgb(19,20,80)"/><polygon points="190,543 214,555 214,559 190,547" fill="rgb(25,26,105)"/><polygon points="214,531 238,543 214,555 190,543" fill="rgb(33,35,139)" stroke="#0f172a" stroke-width=".4"/><title>Fixed 1: producer CPU 2 → consumer CPU 0; 298.643 M items/s</title></g>
<g><polygon points="214,555 190,567 190,571 214,559" fill="rgb(19,20,80)"/><polygon points="166,555 190,567 190,571 166,559" fill="rgb(25,26,105)"/><polygon points="190,543 214,555 190,567 166,555" fill="rgb(33,35,139)" stroke="#0f172a" stroke-width=".4"/><title>Fixed 1: producer CPU 2 → consumer CPU 1; 298.831 M items/s</title></g>
<g><polygon points="166,579 142,591 142,595 166,583" fill="rgb(19,20,80)"/><polygon points="118,579 142,591 142,595 118,583" fill="rgb(25,26,105)"/><polygon points="142,567 166,579 142,591 118,579" fill="rgb(33,35,139)" stroke="#0f172a" stroke-width=".4"/><title>Fixed 1: producer CPU 2 → consumer CPU 3; 297.985 M items/s</title></g>
<g><polygon points="262,555 238,567 238,571 262,559" fill="rgb(19,20,80)"/><polygon points="214,555 238,567 238,571 214,559" fill="rgb(25,26,105)"/><polygon points="238,543 262,555 238,567 214,555" fill="rgb(33,35,139)" stroke="#0f172a" stroke-width=".4"/><title>Fixed 1: producer CPU 3 → consumer CPU 0; 298.505 M items/s</title></g>
<g><polygon points="238,567 214,579 214,583 238,571" fill="rgb(19,20,80)"/><polygon points="190,567 214,579 214,583 190,571" fill="rgb(25,26,105)"/><polygon points="214,555 238,567 214,579 190,567" fill="rgb(33,35,139)" stroke="#0f172a" stroke-width=".4"/><title>Fixed 1: producer CPU 3 → consumer CPU 1; 298.571 M items/s</title></g>
<g><polygon points="214,579 190,591 190,595 214,583" fill="rgb(19,20,80)"/><polygon points="166,579 190,591 190,595 166,583" fill="rgb(25,26,105)"/><polygon points="190,567 214,579 190,591 166,579" fill="rgb(34,35,139)" stroke="#0f172a" stroke-width=".4"/><title>Fixed 1: producer CPU 3 → consumer CPU 2; 300.184 M items/s</title></g>
<text x="60" y="559" text-anchor="end" class="small">Fixed 1</text></g>
<g class="slice" id="slice-2">
<g><polygon points="166,475 142,487 142,491 166,479" fill="rgb(29,28,77)"/><polygon points="118,475 142,487 142,491 118,479" fill="rgb(38,37,101)"/><polygon points="142,463 166,475 142,487 118,475" fill="rgb(51,49,134)" stroke="#0f172a" stroke-width=".4"/><title>Fixed 2: producer CPU 0 → consumer CPU 1; 350.332 M items/s</title></g>
<g><polygon points="142,487 118,499 118,503 142,491" fill="rgb(30,28,77)"/><polygon points="94,487 118,499 118,503 94,491" fill="rgb(39,38,101)"/><polygon points="118,475 142,487 118,499 94,487" fill="rgb(52,50,134)" stroke="#0f172a" stroke-width=".4"/><title>Fixed 2: producer CPU 0 → consumer CPU 2; 352.175 M items/s</title></g>
<g><polygon points="118,499 94,511 94,515 118,503" fill="rgb(30,28,77)"/><polygon points="70,499 94,511 94,515 70,503" fill="rgb(39,38,101)"/><polygon points="94,487 118,499 94,511 70,499" fill="rgb(52,50,134)" stroke="#0f172a" stroke-width=".4"/><title>Fixed 2: producer CPU 0 → consumer CPU 3; 351.748 M items/s</title></g>
<g><polygon points="214,475 190,487 190,491 214,479" fill="rgb(30,28,77)"/><polygon points="166,475 190,487 190,491 166,479" fill="rgb(39,37,101)"/><polygon points="190,463 214,475 190,487 166,475" fill="rgb(52,49,134)" stroke="#0f172a" stroke-width=".4"/><title>Fixed 2: producer CPU 1 → consumer CPU 0; 350.719 M items/s</title></g>
<g><polygon points="166,499 142,511 142,515 166,503" fill="rgb(30,28,77)"/><polygon points="118,499 142,511 142,515 118,503" fill="rgb(39,37,101)"/><polygon points="142,487 166,499 142,511 118,499" fill="rgb(52,49,134)" stroke="#0f172a" stroke-width=".4"/><title>Fixed 2: producer CPU 1 → consumer CPU 2; 351.559 M items/s</title></g>
<g><polygon points="142,511 118,523 118,527 142,515" fill="rgb(30,28,77)"/><polygon points="94,511 118,523 118,527 94,515" fill="rgb(39,37,101)"/><polygon points="118,499 142,511 118,523 94,511" fill="rgb(52,49,134)" stroke="#0f172a" stroke-width=".4"/><title>Fixed 2: producer CPU 1 → consumer CPU 3; 350.589 M items/s</title></g>
<g><polygon points="238,487 214,499 214,503 238,491" fill="rgb(29,28,77)"/><polygon points="190,487 214,499 214,503 190,491" fill="rgb(38,37,101)"/><polygon points="214,475 238,487 214,499 190,487" fill="rgb(51,49,134)" stroke="#0f172a" stroke-width=".4"/><title>Fixed 2: producer CPU 2 → consumer CPU 0; 350.135 M items/s</title></g>
<g><polygon points="214,499 190,511 190,515 214,503" fill="rgb(30,28,77)"/><polygon points="166,499 190,511 190,515 166,503" fill="rgb(39,37,101)"/><polygon points="190,487 214,499 190,511 166,499" fill="rgb(52,49,134)" stroke="#0f172a" stroke-width=".4"/><title>Fixed 2: producer CPU 2 → consumer CPU 1; 351.047 M items/s</title></g>
<g><polygon points="166,523 142,535 142,539 166,527" fill="rgb(30,28,77)"/><polygon points="118,523 142,535 142,539 118,527" fill="rgb(39,38,101)"/><polygon points="142,511 166,523 142,535 118,523" fill="rgb(52,50,134)" stroke="#0f172a" stroke-width=".4"/><title>Fixed 2: producer CPU 2 → consumer CPU 3; 352.477 M items/s</title></g>
<g><polygon points="262,499 238,511 238,515 262,503" fill="rgb(30,28,77)"/><polygon points="214,499 238,511 238,515 214,503" fill="rgb(40,38,101)"/><polygon points="238,487 262,499 238,511 214,499" fill="rgb(53,50,134)" stroke="#0f172a" stroke-width=".4"/><title>Fixed 2: producer CPU 3 → consumer CPU 0; 353.838 M items/s</title></g>
<g><polygon points="238,511 214,523 214,527 238,515" fill="rgb(29,28,77)"/><polygon points="190,511 214,523 214,527 190,515" fill="rgb(38,37,101)"/><polygon points="214,499 238,511 214,523 190,511" fill="rgb(51,49,134)" stroke="#0f172a" stroke-width=".4"/><title>Fixed 2: producer CPU 3 → consumer CPU 1; 350.187 M items/s</title></g>
<g><polygon points="214,523 190,535 190,539 214,527" fill="rgb(30,28,77)"/><polygon points="166,523 190,535 190,539 166,527" fill="rgb(39,38,101)"/><polygon points="190,511 214,523 190,535 166,523" fill="rgb(52,50,134)" stroke="#0f172a" stroke-width=".4"/><title>Fixed 2: producer CPU 3 → consumer CPU 2; 352.016 M items/s</title></g>
<text x="60" y="503" text-anchor="end" class="small">Fixed 2</text></g>
<g class="slice" id="slice-3">
<g><polygon points="166,419 142,431 142,435 166,423" fill="rgb(57,49,69)"/><polygon points="118,419 142,431 142,435 118,423" fill="rgb(75,65,91)"/><polygon points="142,407 166,419 142,431 118,419" fill="rgb(99,86,120)" stroke="#0f172a" stroke-width=".4"/><title>Fixed 3: producer CPU 0 → consumer CPU 1; 483.794 M items/s</title></g>
<g><polygon points="142,431 118,443 118,447 142,435" fill="rgb(59,51,69)"/><polygon points="94,431 118,443 118,447 94,435" fill="rgb(77,66,90)"/><polygon points="118,419 142,431 118,443 94,431" fill="rgb(102,88,119)" stroke="#0f172a" stroke-width=".4"/><title>Fixed 3: producer CPU 0 → consumer CPU 2; 493.498 M items/s</title></g>
<g><polygon points="118,443 94,455 94,459 118,447" fill="rgb(58,51,69)"/><polygon points="70,443 94,455 94,459 70,447" fill="rgb(76,66,90)"/><polygon points="94,431 118,443 94,455 70,443" fill="rgb(101,88,119)" stroke="#0f172a" stroke-width=".4"/><title>Fixed 3: producer CPU 0 → consumer CPU 3; 491.366 M items/s</title></g>
<g><polygon points="214,419 190,431 190,435 214,423" fill="rgb(57,49,69)"/><polygon points="166,419 190,431 190,435 166,423" fill="rgb(76,65,91)"/><polygon points="190,407 214,419 190,431 166,419" fill="rgb(100,86,120)" stroke="#0f172a" stroke-width=".4"/><title>Fixed 3: producer CPU 1 → consumer CPU 0; 486.440 M items/s</title></g>
<g><polygon points="166,443 142,455 142,459 166,447" fill="rgb(58,51,69)"/><polygon points="118,443 142,455 142,459 118,447" fill="rgb(76,66,90)"/><polygon points="142,431 166,443 142,455 118,443" fill="rgb(101,88,119)" stroke="#0f172a" stroke-width=".4"/><title>Fixed 3: producer CPU 1 → consumer CPU 2; 491.439 M items/s</title></g>
<g><polygon points="142,455 118,467 118,471 142,459" fill="rgb(57,49,69)"/><polygon points="94,455 118,467 118,471 94,459" fill="rgb(76,65,91)"/><polygon points="118,443 142,455 118,467 94,455" fill="rgb(100,86,120)" stroke="#0f172a" stroke-width=".4"/><title>Fixed 3: producer CPU 1 → consumer CPU 3; 487.122 M items/s</title></g>
<g><polygon points="238,431 214,443 214,447 238,435" fill="rgb(57,50,69)"/><polygon points="190,431 214,443 214,447 190,435" fill="rgb(76,66,91)"/><polygon points="214,419 238,431 214,443 190,431" fill="rgb(100,87,120)" stroke="#0f172a" stroke-width=".4"/><title>Fixed 3: producer CPU 2 → consumer CPU 0; 487.261 M items/s</title></g>
<g><polygon points="214,443 190,455 190,459 214,447" fill="rgb(57,49,69)"/><polygon points="166,443 190,455 190,459 166,447" fill="rgb(76,65,91)"/><polygon points="190,431 214,443 190,455 166,443" fill="rgb(100,86,120)" stroke="#0f172a" stroke-width=".4"/><title>Fixed 3: producer CPU 2 → consumer CPU 1; 486.947 M items/s</title></g>
<g><polygon points="166,467 142,479 142,483 166,471" fill="rgb(58,50,69)"/><polygon points="118,467 142,479 142,483 118,471" fill="rgb(76,66,90)"/><polygon points="142,455 166,467 142,479 118,467" fill="rgb(101,87,119)" stroke="#0f172a" stroke-width=".4"/><title>Fixed 3: producer CPU 2 → consumer CPU 3; 489.951 M items/s</title></g>
<g><polygon points="262,443 238,455 238,459 262,447" fill="rgb(58,50,69)"/><polygon points="214,443 238,455 238,459 214,447" fill="rgb(76,66,90)"/><polygon points="238,431 262,443 238,455 214,443" fill="rgb(101,87,119)" stroke="#0f172a" stroke-width=".4"/><title>Fixed 3: producer CPU 3 → consumer CPU 0; 489.962 M items/s</title></g>
<g><polygon points="238,455 214,467 214,471 238,459" fill="rgb(57,50,69)"/><polygon points="190,455 214,467 214,471 190,459" fill="rgb(76,66,91)"/><polygon points="214,443 238,455 214,467 190,455" fill="rgb(100,87,120)" stroke="#0f172a" stroke-width=".4"/><title>Fixed 3: producer CPU 3 → consumer CPU 1; 487.252 M items/s</title></g>
<g><polygon points="214,467 190,479 190,483 214,471" fill="rgb(58,50,69)"/><polygon points="166,467 190,479 190,483 166,471" fill="rgb(76,66,90)"/><polygon points="190,455 214,467 190,479 166,467" fill="rgb(101,87,119)" stroke="#0f172a" stroke-width=".4"/><title>Fixed 3: producer CPU 3 → consumer CPU 2; 489.968 M items/s</title></g>
<text x="60" y="447" text-anchor="end" class="small">Fixed 3</text></g>
<g class="slice" id="slice-4">
<g><polygon points="166,363 142,375 142,379 166,367" fill="rgb(120,98,51)"/><polygon points="118,363 142,375 142,379 118,367" fill="rgb(157,128,66)"/><polygon points="142,351 166,363 142,375 118,363" fill="rgb(207,169,88)" stroke="#0f172a" stroke-width=".4"/><title>Fixed 4: producer CPU 0 → consumer CPU 1; 789.505 M items/s</title></g>
<g><polygon points="142,375 118,387 118,391 142,379" fill="rgb(119,98,51)"/><polygon points="94,375 118,387 118,391 94,379" fill="rgb(156,128,66)"/><polygon points="118,363 142,375 118,387 94,375" fill="rgb(206,169,88)" stroke="#0f172a" stroke-width=".4"/><title>Fixed 4: producer CPU 0 → consumer CPU 2; 788.946 M items/s</title></g>
<g><polygon points="118,387 94,399 94,403 118,391" fill="rgb(119,98,51)"/><polygon points="70,387 94,399 94,403 70,391" fill="rgb(156,128,66)"/><polygon points="94,375 118,387 94,399 70,387" fill="rgb(206,169,88)" stroke="#0f172a" stroke-width=".4"/><title>Fixed 4: producer CPU 0 → consumer CPU 3; 788.542 M items/s</title></g>
<g><polygon points="214,363 190,375 190,379 214,367" fill="rgb(121,99,50)"/><polygon points="166,363 190,375 190,379 166,367" fill="rgb(158,129,66)"/><polygon points="190,351 214,363 190,375 166,363" fill="rgb(209,171,87)" stroke="#0f172a" stroke-width=".4"/><title>Fixed 4: producer CPU 1 → consumer CPU 0; 795.850 M items/s</title></g>
<g><polygon points="166,387 142,399 142,403 166,391" fill="rgb(120,98,51)"/><polygon points="118,387 142,399 142,403 118,391" fill="rgb(157,128,66)"/><polygon points="142,375 166,387 142,399 118,387" fill="rgb(207,169,88)" stroke="#0f172a" stroke-width=".4"/><title>Fixed 4: producer CPU 1 → consumer CPU 2; 790.602 M items/s</title></g>
<g><polygon points="142,399 118,411 118,415 142,403" fill="rgb(118,97,51)"/><polygon points="94,399 118,411 118,415 94,403" fill="rgb(155,127,66)"/><polygon points="118,387 142,399 118,411 94,399" fill="rgb(205,168,88)" stroke="#0f172a" stroke-width=".4"/><title>Fixed 4: producer CPU 1 → consumer CPU 3; 786.037 M items/s</title></g>
<g><polygon points="238,375 214,387 214,391 238,379" fill="rgb(122,99,50)"/><polygon points="190,375 214,387 214,391 190,379" fill="rgb(160,130,66)"/><polygon points="214,363 238,375 214,387 190,375" fill="rgb(211,172,87)" stroke="#0f172a" stroke-width=".4"/><title>Fixed 4: producer CPU 2 → consumer CPU 0; 801.085 M items/s</title></g>
<g><polygon points="214,387 190,399 190,403 214,391" fill="rgb(120,98,51)"/><polygon points="166,387 190,399 190,403 166,391" fill="rgb(157,128,66)"/><polygon points="190,375 214,387 190,399 166,387" fill="rgb(207,169,88)" stroke="#0f172a" stroke-width=".4"/><title>Fixed 4: producer CPU 2 → consumer CPU 1; 789.867 M items/s</title></g>
<g><polygon points="166,411 142,423 142,427 166,415" fill="rgb(120,98,51)"/><polygon points="118,411 142,423 142,427 118,415" fill="rgb(158,129,66)"/><polygon points="142,399 166,411 142,423 118,411" fill="rgb(208,170,88)" stroke="#0f172a" stroke-width=".4"/><title>Fixed 4: producer CPU 2 → consumer CPU 3; 792.809 M items/s</title></g>
<g><polygon points="262,387 238,399 238,403 262,391" fill="rgb(118,97,51)"/><polygon points="214,387 238,399 238,403 214,391" fill="rgb(155,127,66)"/><polygon points="238,375 262,387 238,399 214,387" fill="rgb(205,168,88)" stroke="#0f172a" stroke-width=".4"/><title>Fixed 4: producer CPU 3 → consumer CPU 0; 785.623 M items/s</title></g>
<g><polygon points="238,399 214,411 214,415 238,403" fill="rgb(118,97,51)"/><polygon points="190,399 214,411 214,415 190,403" fill="rgb(155,127,67)"/><polygon points="214,387 238,399 214,411 190,399" fill="rgb(205,168,89)" stroke="#0f172a" stroke-width=".4"/><title>Fixed 4: producer CPU 3 → consumer CPU 1; 784.423 M items/s</title></g>
<g><polygon points="214,411 190,423 190,427 214,415" fill="rgb(120,98,51)"/><polygon points="166,411 190,423 190,427 166,415" fill="rgb(157,129,66)"/><polygon points="190,399 214,411 190,423 166,411" fill="rgb(207,170,88)" stroke="#0f172a" stroke-width=".4"/><title>Fixed 4: producer CPU 3 → consumer CPU 2; 791.582 M items/s</title></g>
<text x="60" y="391" text-anchor="end" class="small">Fixed 4</text></g>
<g class="slice" id="slice-5">
<g><polygon points="166,307 142,319 142,323 166,311" fill="rgb(97,80,57)"/><polygon points="118,307 142,319 142,323 118,311" fill="rgb(127,105,75)"/><polygon points="142,295 166,307 142,319 118,307" fill="rgb(168,139,99)" stroke="#0f172a" stroke-width=".4"/><title>Fixed 5: producer CPU 0 → consumer CPU 1; 680.523 M items/s</title></g>
<g><polygon points="142,319 118,331 118,335 142,323" fill="rgb(101,84,56)"/><polygon points="94,319 118,331 118,335 94,323" fill="rgb(133,110,73)"/><polygon points="118,307 142,319 118,331 94,319" fill="rgb(175,145,97)" stroke="#0f172a" stroke-width=".4"/><title>Fixed 5: producer CPU 0 → consumer CPU 2; 700.535 M items/s</title></g>
<g><polygon points="118,331 94,343 94,347 118,335" fill="rgb(100,82,56)"/><polygon points="70,331 94,343 94,347 70,335" fill="rgb(131,108,74)"/><polygon points="94,319 118,331 94,343 70,331" fill="rgb(173,143,98)" stroke="#0f172a" stroke-width=".4"/><title>Fixed 5: producer CPU 0 → consumer CPU 3; 695.445 M items/s</title></g>
<g><polygon points="214,307 190,319 190,323 214,311" fill="rgb(98,81,57)"/><polygon points="166,307 190,319 190,323 166,311" fill="rgb(129,107,75)"/><polygon points="190,295 214,307 190,319 166,307" fill="rgb(170,141,99)" stroke="#0f172a" stroke-width=".4"/><title>Fixed 5: producer CPU 1 → consumer CPU 0; 685.606 M items/s</title></g>
<g><polygon points="166,331 142,343 142,347 166,335" fill="rgb(100,83,56)"/><polygon points="118,331 142,343 142,347 118,335" fill="rgb(132,109,74)"/><polygon points="142,319 166,331 142,343 118,331" fill="rgb(174,144,98)" stroke="#0f172a" stroke-width=".4"/><title>Fixed 5: producer CPU 1 → consumer CPU 2; 697.173 M items/s</title></g>
<g><polygon points="142,343 118,355 118,359 142,347" fill="rgb(100,82,56)"/><polygon points="94,343 118,355 118,359 94,347" fill="rgb(131,108,74)"/><polygon points="118,331 142,343 118,355 94,343" fill="rgb(173,143,98)" stroke="#0f172a" stroke-width=".4"/><title>Fixed 5: producer CPU 1 → consumer CPU 3; 693.810 M items/s</title></g>
<g><polygon points="238,319 214,331 214,335 238,323" fill="rgb(99,82,56)"/><polygon points="190,319 214,331 214,335 190,323" fill="rgb(130,108,74)"/><polygon points="214,307 238,319 214,331 190,319" fill="rgb(172,143,98)" stroke="#0f172a" stroke-width=".4"/><title>Fixed 5: producer CPU 2 → consumer CPU 0; 692.503 M items/s</title></g>
<g><polygon points="214,331 190,343 190,347 214,335" fill="rgb(100,82,56)"/><polygon points="166,331 190,343 190,347 166,335" fill="rgb(131,108,74)"/><polygon points="190,319 214,331 190,343 166,331" fill="rgb(173,143,98)" stroke="#0f172a" stroke-width=".4"/><title>Fixed 5: producer CPU 2 → consumer CPU 1; 694.549 M items/s</title></g>
<g><polygon points="166,355 142,367 142,371 166,359" fill="rgb(101,83,56)"/><polygon points="118,355 142,367 142,371 118,359" fill="rgb(133,109,73)"/><polygon points="142,343 166,355 142,367 118,355" fill="rgb(175,144,97)" stroke="#0f172a" stroke-width=".4"/><title>Fixed 5: producer CPU 2 → consumer CPU 3; 699.276 M items/s</title></g>
<g><polygon points="262,331 238,343 238,347 262,335" fill="rgb(102,84,56)"/><polygon points="214,331 238,343 238,347 214,335" fill="rgb(133,110,73)"/><polygon points="238,319 262,331 238,343 214,331" fill="rgb(176,145,97)" stroke="#0f172a" stroke-width=".4"/><title>Fixed 5: producer CPU 3 → consumer CPU 0; 702.939 M items/s</title></g>
<g><polygon points="238,343 214,355 214,359 238,347" fill="rgb(98,81,57)"/><polygon points="190,343 214,355 214,359 190,347" fill="rgb(129,107,75)"/><polygon points="214,331 238,343 214,355 190,343" fill="rgb(170,141,99)" stroke="#0f172a" stroke-width=".4"/><title>Fixed 5: producer CPU 3 → consumer CPU 1; 685.454 M items/s</title></g>
<g><polygon points="214,355 190,367 190,371 214,359" fill="rgb(101,84,56)"/><polygon points="166,355 190,367 190,371 166,359" fill="rgb(133,110,73)"/><polygon points="190,343 214,355 190,367 166,355" fill="rgb(175,145,97)" stroke="#0f172a" stroke-width=".4"/><title>Fixed 5: producer CPU 3 → consumer CPU 2; 700.086 M items/s</title></g>
<text x="60" y="335" text-anchor="end" class="small">Fixed 5</text></g>
<g class="slice" id="slice-6">
<g><polygon points="166,251 142,263 142,267 166,255" fill="rgb(106,87,55)"/><polygon points="118,251 142,263 142,267 118,255" fill="rgb(139,114,72)"/><polygon points="142,239 166,251 142,263 118,251" fill="rgb(184,151,95)" stroke="#0f172a" stroke-width=".4"/><title>Fixed 6: producer CPU 0 → consumer CPU 1; 725.271 M items/s</title></g>
<g><polygon points="142,263 118,275 118,279 142,267" fill="rgb(107,88,54)"/><polygon points="94,263 118,275 118,279 94,267" fill="rgb(141,116,71)"/><polygon points="118,251 142,263 118,275 94,263" fill="rgb(186,153,94)" stroke="#0f172a" stroke-width=".4"/><title>Fixed 6: producer CPU 0 → consumer CPU 2; 732.365 M items/s</title></g>
<g><polygon points="118,275 94,287 94,291 118,279" fill="rgb(109,89,54)"/><polygon points="70,275 94,287 94,291 70,279" fill="rgb(142,117,71)"/><polygon points="94,263 118,275 94,287 70,275" fill="rgb(188,155,94)" stroke="#0f172a" stroke-width=".4"/><title>Fixed 6: producer CPU 0 → consumer CPU 3; 736.964 M items/s</title></g>
<g><polygon points="214,251 190,263 190,267 214,255" fill="rgb(107,88,54)"/><polygon points="166,251 190,263 190,267 166,255" fill="rgb(141,116,71)"/><polygon points="190,239 214,251 190,263 166,251" fill="rgb(186,153,94)" stroke="#0f172a" stroke-width=".4"/><title>Fixed 6: producer CPU 1 → consumer CPU 0; 732.474 M items/s</title></g>
<g><polygon points="166,275 142,287 142,291 166,279" fill="rgb(109,90,53)"/><polygon points="118,275 142,287 142,291 118,279" fill="rgb(143,118,70)"/><polygon points="142,263 166,275 142,287 118,275" fill="rgb(189,156,93)" stroke="#0f172a" stroke-width=".4"/><title>Fixed 6: producer CPU 1 → consumer CPU 2; 740.312 M items/s</title></g>
<g><polygon points="142,287 118,299 118,303 142,291" fill="rgb(107,88,54)"/><polygon points="94,287 118,299 118,303 94,291" fill="rgb(140,115,71)"/><polygon points="118,275 142,287 118,299 94,287" fill="rgb(185,152,94)" stroke="#0f172a" stroke-width=".4"/><title>Fixed 6: producer CPU 1 → consumer CPU 3; 728.105 M items/s</title></g>
<g><polygon points="238,263 214,275 214,279 238,267" fill="rgb(106,87,55)"/><polygon points="190,263 214,275 214,279 190,267" fill="rgb(139,114,72)"/><polygon points="214,251 238,263 214,275 190,263" fill="rgb(183,151,95)" stroke="#0f172a" stroke-width=".4"/><title>Fixed 6: producer CPU 2 → consumer CPU 0; 722.583 M items/s</title></g>
<g><polygon points="214,275 190,287 190,291 214,279" fill="rgb(107,88,54)"/><polygon points="166,275 190,287 190,291 166,279" fill="rgb(140,115,71)"/><polygon points="190,263 214,275 190,287 166,275" fill="rgb(185,152,94)" stroke="#0f172a" stroke-width=".4"/><title>Fixed 6: producer CPU 2 → consumer CPU 1; 728.390 M items/s</title></g>
<g><polygon points="166,299 142,311 142,315 166,303" fill="rgb(107,88,55)"/><polygon points="118,299 142,311 142,315 118,303" fill="rgb(140,115,72)"/><polygon points="142,287 166,299 142,311 118,299" fill="rgb(185,152,95)" stroke="#0f172a" stroke-width=".4"/><title>Fixed 6: producer CPU 2 → consumer CPU 3; 727.212 M items/s</title></g>
<g><polygon points="262,275 238,287 238,291 262,279" fill="rgb(107,88,55)"/><polygon points="214,275 238,287 238,291 214,279" fill="rgb(140,115,72)"/><polygon points="238,263 262,275 238,287 214,275" fill="rgb(185,152,95)" stroke="#0f172a" stroke-width=".4"/><title>Fixed 6: producer CPU 3 → consumer CPU 0; 727.508 M items/s</title></g>
<g><polygon points="238,287 214,299 214,303 238,291" fill="rgb(106,88,55)"/><polygon points="190,287 214,299 214,303 190,291" fill="rgb(139,115,72)"/><polygon points="214,275 238,287 214,299 190,287" fill="rgb(184,152,95)" stroke="#0f172a" stroke-width=".4"/><title>Fixed 6: producer CPU 3 → consumer CPU 1; 726.101 M items/s</title></g>
<g><polygon points="214,299 190,311 190,315 214,303" fill="rgb(106,88,55)"/><polygon points="166,299 190,311 190,315 166,303" fill="rgb(139,115,72)"/><polygon points="190,287 214,299 190,311 166,299" fill="rgb(184,152,95)" stroke="#0f172a" stroke-width=".4"/><title>Fixed 6: producer CPU 3 → consumer CPU 2; 725.554 M items/s</title></g>
<text x="60" y="279" text-anchor="end" class="small">Fixed 6</text></g>
<g class="slice" id="slice-7">
<g><polygon points="166,195 142,207 142,211 166,199" fill="rgb(108,89,54)"/><polygon points="118,195 142,207 142,211 118,199" fill="rgb(142,117,71)"/><polygon points="142,183 166,195 142,207 118,195" fill="rgb(187,154,94)" stroke="#0f172a" stroke-width=".4"/><title>Fixed 7: producer CPU 0 → consumer CPU 1; 734.004 M items/s</title></g>
<g><polygon points="142,207 118,219 118,223 142,211" fill="rgb(111,92,53)"/><polygon points="94,207 118,219 118,223 94,211" fill="rgb(146,120,69)"/><polygon points="118,195 142,207 118,219 94,207" fill="rgb(193,159,92)" stroke="#0f172a" stroke-width=".4"/><title>Fixed 7: producer CPU 0 → consumer CPU 2; 751.354 M items/s</title></g>
<g><polygon points="118,219 94,231 94,235 118,223" fill="rgb(109,89,54)"/><polygon points="70,219 94,231 94,235 70,223" fill="rgb(142,117,71)"/><polygon points="94,207 118,219 94,231 70,219" fill="rgb(188,154,94)" stroke="#0f172a" stroke-width=".4"/><title>Fixed 7: producer CPU 0 → consumer CPU 3; 735.518 M items/s</title></g>
<g><polygon points="214,195 190,207 190,211 214,199" fill="rgb(108,89,54)"/><polygon points="166,195 190,207 190,211 166,199" fill="rgb(142,117,71)"/><polygon points="190,183 214,195 190,207 166,195" fill="rgb(187,154,94)" stroke="#0f172a" stroke-width=".4"/><title>Fixed 7: producer CPU 1 → consumer CPU 0; 733.208 M items/s</title></g>
<g><polygon points="166,219 142,231 142,235 166,223" fill="rgb(110,91,53)"/><polygon points="118,219 142,231 142,235 118,223" fill="rgb(145,119,70)"/><polygon points="142,207 166,219 142,231 118,219" fill="rgb(191,157,93)" stroke="#0f172a" stroke-width=".4"/><title>Fixed 7: producer CPU 1 → consumer CPU 2; 745.498 M items/s</title></g>
<g><polygon points="142,231 118,243 118,247 142,235" fill="rgb(106,87,55)"/><polygon points="94,231 118,243 118,247 94,235" fill="rgb(139,114,72)"/><polygon points="118,219 142,231 118,243 94,231" fill="rgb(183,151,95)" stroke="#0f172a" stroke-width=".4"/><title>Fixed 7: producer CPU 1 → consumer CPU 3; 723.287 M items/s</title></g>
<g><polygon points="238,207 214,219 214,223 238,211" fill="rgb(104,85,55)"/><polygon points="190,207 214,219 214,223 190,211" fill="rgb(136,112,72)"/><polygon points="214,195 238,207 214,219 190,207" fill="rgb(180,148,96)" stroke="#0f172a" stroke-width=".4"/><title>Fixed 7: producer CPU 2 → consumer CPU 0; 713.521 M items/s</title></g>
<g><polygon points="214,219 190,231 190,235 214,223" fill="rgb(110,91,53)"/><polygon points="166,219 190,231 190,235 166,223" fill="rgb(145,119,70)"/><polygon points="190,207 214,219 190,231 166,219" fill="rgb(191,157,93)" stroke="#0f172a" stroke-width=".4"/><title>Fixed 7: producer CPU 2 → consumer CPU 1; 744.490 M items/s</title></g>
<g><polygon points="166,243 142,255 142,259 166,247" fill="rgb(108,89,54)"/><polygon points="118,243 142,255 142,259 118,247" fill="rgb(142,117,71)"/><polygon points="142,231 166,243 142,255 118,243" fill="rgb(187,154,94)" stroke="#0f172a" stroke-width=".4"/><title>Fixed 7: producer CPU 2 → consumer CPU 3; 735.210 M items/s</title></g>
<g><polygon points="262,219 238,231 238,235 262,223" fill="rgb(111,91,53)"/><polygon points="214,219 238,231 238,235 214,223" fill="rgb(145,120,69)"/><polygon points="238,207 262,219 238,231 214,219" fill="rgb(192,158,92)" stroke="#0f172a" stroke-width=".4"/><title>Fixed 7: producer CPU 3 → consumer CPU 0; 747.575 M items/s</title></g>
<g><polygon points="238,231 214,243 214,247 238,235" fill="rgb(107,88,54)"/><polygon points="190,231 214,243 214,247 190,235" fill="rgb(141,116,71)"/><polygon points="214,219 238,231 214,243 190,231" fill="rgb(186,153,94)" stroke="#0f172a" stroke-width=".4"/><title>Fixed 7: producer CPU 3 → consumer CPU 1; 730.130 M items/s</title></g>
<g><polygon points="214,243 190,255 190,259 214,247" fill="rgb(107,88,54)"/><polygon points="166,243 190,255 190,259 166,247" fill="rgb(141,116,71)"/><polygon points="190,231 214,243 190,255 166,243" fill="rgb(186,153,94)" stroke="#0f172a" stroke-width=".4"/><title>Fixed 7: producer CPU 3 → consumer CPU 2; 730.061 M items/s</title></g>
<text x="60" y="223" text-anchor="end" class="small">Fixed 7</text></g>
<g class="slice" id="slice-8">
<g><polygon points="166,139 142,151 142,155 166,143" fill="rgb(137,111,45)"/><polygon points="118,139 142,151 142,155 118,143" fill="rgb(180,146,60)"/><polygon points="142,127 166,139 142,151 118,139" fill="rgb(237,193,79)" stroke="#0f172a" stroke-width=".4"/><title>Fixed 8: producer CPU 0 → consumer CPU 1; 876.583 M items/s</title></g>
<g><polygon points="142,151 118,163 118,167 142,155" fill="rgb(143,115,44)"/><polygon points="94,151 118,163 118,167 94,155" fill="rgb(187,152,57)"/><polygon points="118,139 142,151 118,163 94,151" fill="rgb(247,200,76)" stroke="#0f172a" stroke-width=".4"/><title>Fixed 8: producer CPU 0 → consumer CPU 2; 902.523 M items/s</title></g>
<g><polygon points="118,163 94,175 94,179 118,167" fill="rgb(140,114,44)"/><polygon points="70,163 94,175 94,179 70,167" fill="rgb(183,149,58)"/><polygon points="94,151 118,163 94,175 70,163" fill="rgb(242,197,77)" stroke="#0f172a" stroke-width=".4"/><title>Fixed 8: producer CPU 0 → consumer CPU 3; 891.086 M items/s</title></g>
<g><polygon points="214,139 190,151 190,155 214,143" fill="rgb(129,105,48)"/><polygon points="166,139 190,151 190,155 166,143" fill="rgb(169,138,63)"/><polygon points="190,127 214,139 190,151 166,139" fill="rgb(223,182,83)" stroke="#0f172a" stroke-width=".4"/><title>Fixed 8: producer CPU 1 → consumer CPU 0; 836.741 M items/s</title></g>
<g><polygon points="166,163 142,175 142,179 166,167" fill="rgb(135,110,46)"/><polygon points="118,163 142,175 142,179 118,167" fill="rgb(177,144,60)"/><polygon points="142,151 166,163 142,175 118,163" fill="rgb(234,190,80)" stroke="#0f172a" stroke-width=".4"/><title>Fixed 8: producer CPU 1 → consumer CPU 2; 867.784 M items/s</title></g>
<g><polygon points="142,175 118,187 118,191 142,179" fill="rgb(139,113,45)"/><polygon points="94,175 118,187 118,191 94,179" fill="rgb(182,148,59)"/><polygon points="118,163 142,175 118,187 94,175" fill="rgb(240,195,78)" stroke="#0f172a" stroke-width=".4"/><title>Fixed 8: producer CPU 1 → consumer CPU 3; 883.346 M items/s</title></g>
<g><polygon points="238,151 214,163 214,167 238,155" fill="rgb(142,115,44)"/><polygon points="190,151 214,163 214,167 190,155" fill="rgb(186,151,58)"/><polygon points="214,139 238,151 214,163 190,151" fill="rgb(245,199,77)" stroke="#0f172a" stroke-width=".4"/><title>Fixed 8: producer CPU 2 → consumer CPU 0; 898.279 M items/s</title></g>
<g><polygon points="214,163 190,175 190,179 214,167" fill="rgb(143,116,44)"/><polygon points="166,163 190,175 190,179 166,167" fill="rgb(188,152,57)"/><polygon points="190,151 214,163 190,175 166,163" fill="rgb(248,201,76)" stroke="#0f172a" stroke-width=".4"/><title>Fixed 8: producer CPU 2 → consumer CPU 1; 905.687 M items/s</title></g>
<g><polygon points="166,187 142,199 142,203 166,191" fill="rgb(146,118,43)"/><polygon points="118,187 142,199 142,203 118,191" fill="rgb(192,155,57)"/><polygon points="142,175 166,187 142,199 118,187" fill="rgb(253,205,75)" stroke="#0f172a" stroke-width=".4"/><title>Fixed 8: producer CPU 2 → consumer CPU 3; 919.502 M items/s</title></g>
<g><polygon points="262,163 238,175 238,179 262,167" fill="rgb(140,114,44)"/><polygon points="214,163 238,175 238,179 214,167" fill="rgb(184,149,58)"/><polygon points="238,151 262,163 238,175 214,163" fill="rgb(243,197,77)" stroke="#0f172a" stroke-width=".4"/><title>Fixed 8: producer CPU 3 → consumer CPU 0; 892.612 M items/s</title></g>
<g><polygon points="238,175 214,187 214,191 238,179" fill="rgb(140,113,45)"/><polygon points="190,175 214,187 214,191 190,179" fill="rgb(183,148,59)"/><polygon points="214,163 238,175 214,187 190,175" fill="rgb(242,196,78)" stroke="#0f172a" stroke-width=".4"/><title>Fixed 8: producer CPU 3 → consumer CPU 1; 889.210 M items/s</title></g>
<g><polygon points="214,187 190,199 190,203 214,191" fill="rgb(142,115,44)"/><polygon points="166,187 190,199 190,203 166,191" fill="rgb(186,152,57)"/><polygon points="190,175 214,187 190,199 166,187" fill="rgb(246,200,76)" stroke="#0f172a" stroke-width=".4"/><title>Fixed 8: producer CPU 3 → consumer CPU 2; 902.188 M items/s</title></g>
<text x="60" y="167" text-anchor="end" class="small">Fixed 8</text></g>
<text x="178.0" y="579" text-anchor="middle" class="small">P0</text>
<text x="150.0" y="568" text-anchor="end" class="small">C0</text>
<text x="202.0" y="591" text-anchor="middle" class="small">P1</text>
<text x="126.0" y="580" text-anchor="end" class="small">C1</text>
<text x="226.0" y="603" text-anchor="middle" class="small">P2</text>
<text x="102.0" y="592" text-anchor="end" class="small">C2</text>
<text x="250.0" y="615" text-anchor="middle" class="small">P3</text>
<text x="78.0" y="604" text-anchor="end" class="small">C3</text>
<text x="24" y="669" class="hint">Global color scale: 296.7 M/s <tspan fill="#94a3b8">(dark)</tspan> → 919.5 M/s <tspan fill="#94a3b8">(bright)</tspan>. hard Linux logical-CPU pinning.</text>
<text x="24" y="689" class="hint">Diagonal omitted: producer and consumer must be distinct. 2D per-mode heatmaps remain precise comparison view.</text>
<script><![CDATA[function isolate(id){document.querySelectorAll(".slice").forEach(function(s){s.style.opacity=(s.id===id?"1":".10")})}]]></script>
<text x="24" y="96" class="small legend" onclick="isolate('slice-0')">Scalar</text>
<text x="82" y="96" class="small legend" onclick="isolate('slice-1')">Fixed 1</text>
<text x="140" y="96" class="small legend" onclick="isolate('slice-2')">Fixed 2</text>
<text x="198" y="96" class="small legend" onclick="isolate('slice-3')">Fixed 3</text>
<text x="256" y="96" class="small legend" onclick="isolate('slice-4')">Fixed 4</text>
<text x="314" y="96" class="small legend" onclick="isolate('slice-5')">Fixed 5</text>
<text x="372" y="96" class="small legend" onclick="isolate('slice-6')">Fixed 6</text>
<text x="430" y="96" class="small legend" onclick="isolate('slice-7')">Fixed 7</text>
<text x="488" y="96" class="small legend" onclick="isolate('slice-8')">Fixed 8</text>
</svg>